<svg xmlns="http://www.w3.org/2000/svg" width="160.639" height="112.273" viewBox="0 0 160.639 112.273">
  <g id="Group_14849" data-name="Group 14849" transform="translate(6 6)" opacity="0.9">
    <g id="Path_6143" data-name="Path 6143" transform="translate(0 0)" fill="none">
      <path d="M7.03,0H141.609a6.925,6.925,0,0,1,7.03,6.815V93.459a6.925,6.925,0,0,1-7.03,6.815H7.03A6.925,6.925,0,0,1,0,93.459V6.815A6.925,6.925,0,0,1,7.03,0Z" stroke="none"/>
      <path d="M 7.03021240234375 -1.52587890625e-05 C 3.147537231445313 -1.52587890625e-05 -1.52587890625e-05 3.051040649414063 -1.52587890625e-05 6.814712524414063 L -1.52587890625e-05 93.4588623046875 C -1.52587890625e-05 97.2225341796875 3.147537231445313 100.2735595703125 7.03021240234375 100.2735595703125 L 141.6089324951172 100.2735595703125 C 145.4916076660156 100.2735595703125 148.63916015625 97.2225341796875 148.63916015625 93.4588623046875 L 148.63916015625 6.814712524414063 C 148.63916015625 3.051040649414063 145.4916076660156 -1.52587890625e-05 141.6089324951172 -1.52587890625e-05 L 7.03021240234375 -1.52587890625e-05 M 7.03021240234375 -6.000015258789063 L 141.6089324951172 -6.000015258789063 C 148.7938385009766 -6.000015258789063 154.63916015625 -0.2513656616210938 154.63916015625 6.814712524414063 L 154.63916015625 93.4588623046875 C 154.63916015625 100.5249099731445 148.7938385009766 106.2735595703125 141.6089324951172 106.2735595703125 L 7.03021240234375 106.2735595703125 C -0.154693603515625 106.2735595703125 -6.000015258789063 100.5249099731445 -6.000015258789063 93.4588623046875 L -6.000015258789063 6.814712524414063 C -6.000015258789063 -0.2513656616210938 -0.154693603515625 -6.000015258789063 7.03021240234375 -6.000015258789063 Z" stroke="none" fill="#212147"/>
    </g>
    <g id="Rectangle_60" data-name="Rectangle 60" transform="translate(12.803 17.823)" fill="none" stroke="#3cc" stroke-width="4">
      <rect width="31" height="36" rx="5" stroke="none"/>
      <rect x="-2" y="-2" width="35" height="40" rx="7" fill="none"/>
    </g>
    <path id="Path_5795" data-name="Path 5795" d="M1.318,0H48.775c.728,0,1.318.361,1.318.806v5.64c0,.445-.59.806-1.318.806H1.318C.59,7.251,0,6.89,0,6.445V.806C0,.361.59,0,1.318,0Z" transform="translate(57.255 36.282)" fill="#3cc"/>
    <path id="Path_5794" data-name="Path 5794" d="M1.908,0H70.6C71.649,0,72.5.361,72.5.806v5.64c0,.445-.854.806-1.908.806H1.908C.854,7.251,0,6.89,0,6.445V.806C0,.361.854,0,1.908,0Z" transform="translate(14.384 80.081)" fill="#3cc"/>
    <path id="Path_5796" data-name="Path 5796" d="M1.973,0h71.04c1.09,0,1.973.361,1.973.806v5.64c0,.445-.883.806-1.973.806H1.973C.883,7.251,0,6.89,0,6.445V.806C0,.361.883,0,1.973,0Z" transform="translate(59.164 20.193)" fill="#3cc"/>
    <path id="Path_5793" data-name="Path 5793" d="M3.152,0H116.615c1.741,0,3.152.361,3.152.806v5.64c0,.445-1.411.806-3.152.806H3.152C1.411,7.251,0,6.89,0,6.445V.806C0,.361,1.411,0,3.152,0Z" transform="translate(14.384 64.886)" fill="#3cc"/>
  </g>
</svg>
