<svg xmlns="http://www.w3.org/2000/svg" xmlns:xlink="http://www.w3.org/1999/xlink" width="116" height="88" viewBox="0 0 116 88">
  <defs>
    <clipPath id="clip-path">
      <rect id="Rectangle_1786" data-name="Rectangle 1786" width="116" height="88" transform="translate(17624 4515)" fill="#7a7a7a"/>
    </clipPath>
  </defs>
  <g id="Mask_Group_39" data-name="Mask Group 39" transform="translate(-17624 -4515)" clip-path="url(#clip-path)">
    <g id="Group_14815" data-name="Group 14815" transform="translate(17629.82 4523.297)" opacity="0.9">
      <g id="Path_6143" data-name="Path 6143" transform="translate(0 0)" fill="none">
        <path d="M4.93,0H99.3a4.913,4.913,0,0,1,4.93,4.9V67.137a4.913,4.913,0,0,1-4.93,4.9H4.93A4.913,4.913,0,0,1,0,67.137V4.9A4.913,4.913,0,0,1,4.93,0Z" stroke="none"/>
        <path d="M 4.929542541503906 0 C 2.207023620605469 0 7.62939453125e-06 2.191757202148438 7.62939453125e-06 4.895416259765625 L 7.62939453125e-06 67.13727569580078 C 7.62939453125e-06 69.84095764160156 2.207023620605469 72.03271484375 4.929542541503906 72.03271484375 L 99.29506683349609 72.03271484375 C 102.0175857543945 72.03271484375 104.2246017456055 69.84095764160156 104.2246017456055 67.13727569580078 L 104.2246017456055 4.895416259765625 C 104.2246017456055 2.191757202148438 102.0175857543945 0 99.29506683349609 0 L 4.929542541503906 0 M 4.929542541503906 -6 L 99.29506683349609 -6 C 105.3216247558594 -6 110.2246017456055 -1.112342834472656 110.2246017456055 4.895416259765625 L 110.2246017456055 67.13727569580078 C 110.2246017456055 73.14503479003906 105.3216247558594 78.03271484375 99.29506683349609 78.03271484375 L 4.929542541503906 78.03271484375 C -1.097015380859375 78.03271484375 -5.999992370605469 73.14503479003906 -5.999992370605469 67.13727569580078 L -5.999992370605469 4.895416259765625 C -5.999992370605469 -1.112342834472656 -1.097015380859375 -6 4.929542541503906 -6 Z" stroke="none" fill="#3cc"/>
      </g>
      <g id="Rectangle_60" data-name="Rectangle 60" transform="translate(8.18 12.703)" fill="none" stroke="#212147" stroke-width="3">
        <rect width="23" height="26" rx="5" stroke="none"/>
        <rect x="-1.5" y="-1.5" width="26" height="29" rx="6.5" fill="none"/>
      </g>
      <path id="Path_5795" data-name="Path 5795" d="M.947,0H35.038c.523,0,.947.259.947.579V4.63c0,.32-.424.579-.947.579H.947C.424,5.209,0,4.95,0,4.63V.579C0,.259.424,0,.947,0Z" transform="translate(39.647 26.064)" fill="#212147"/>
      <path id="Path_5794" data-name="Path 5794" d="M1.371,0H50.713c.757,0,1.371.259,1.371.579V4.63c0,.32-.614.579-1.371.579H1.371C.614,5.209,0,4.95,0,4.63V.579C0,.259.614,0,1.371,0Z" transform="translate(10.333 57.527)" fill="#212147"/>
      <path id="Path_5796" data-name="Path 5796" d="M1.418,0H52.45c.783,0,1.418.259,1.418.579V4.63c0,.32-.635.579-1.418.579H1.418C.635,5.209,0,4.95,0,4.63V.579C0,.259.635,0,1.418,0Z" transform="translate(39.949 14.505)" fill="#212147"/>
      <path id="Path_5793" data-name="Path 5793" d="M2.2,0h79.09c1.213,0,2.2.259,2.2.579V4.63c0,.32-.984.579-2.2.579H2.2C.984,5.209,0,4.95,0,4.63V.579C0,.259.984,0,2.2,0Z" transform="translate(10.333 46.611)" fill="#212147"/>
    </g>
  </g>
</svg>
