<svg xmlns="http://www.w3.org/2000/svg" xmlns:xlink="http://www.w3.org/1999/xlink" width="116" height="88" viewBox="0 0 116 88">
  <defs>
    <clipPath id="clip-path">
      <rect id="Rectangle_1790" data-name="Rectangle 1790" width="116" height="88" transform="translate(17024 4735)" fill="#7a7a7a"/>
    </clipPath>
  </defs>
  <g id="Mask_Group_43" data-name="Mask Group 43" transform="translate(-17024 -4735)" clip-path="url(#clip-path)">
    <g id="Group_14813" data-name="Group 14813" transform="translate(17025.393 4735)" opacity="0.9">
      <path id="Path_5762" data-name="Path 5762" d="M-1317.832,180.764c-.323-1.593-.656-3.181-.978-4.774l1.25,6.236A6.729,6.729,0,0,0-1317.832,180.764Z" transform="translate(1349.623 -99.489)"/>
      <path id="Path_5763" data-name="Path 5763" d="M-1320.79,199.069l.373.015a2.846,2.846,0,0,0,1.024-.524A3.07,3.07,0,0,1-1320.79,199.069Z" transform="translate(1350.604 -110.681)"/>
      <path id="Path_5764" data-name="Path 5764" d="M-1321.218,163.887c-.071-.3-.136-.595-.2-.9l.635,3.156C-1320.936,165.395-1321.082,164.644-1321.218,163.887Z" transform="translate(1350.917 -93.043)"/>
      <path id="Path_5765" data-name="Path 5765" d="M-1324.147,149.312c-.1-.479-.207-.958-.3-1.442l.454,2.264C-1324.047,149.861-1324.1,149.584-1324.147,149.312Z" transform="translate(1352.419 -85.546)"/>
      <path id="Path_5766" data-name="Path 5766" d="M-1326.09,191.354a.8.8,0,0,0,.539-.544A1.09,1.09,0,0,1-1326.09,191.354Z" transform="translate(1353.232 -106.838)"/>
      <path id="Path_5767" data-name="Path 5767" d="M-1327.51,191.991h.252a1.056,1.056,0,0,0,.459-.1A2.042,2.042,0,0,1-1327.51,191.991Z" transform="translate(1353.937 -107.374)"/>
      <path id="Path_5768" data-name="Path 5768" d="M-1345.74,188.6a3.869,3.869,0,0,0,.106.509Z" transform="translate(1362.976 -105.742)"/>
      <path id="Path_5769" data-name="Path 5769" d="M-1347.78,178.39a13.062,13.062,0,0,0,.287,1.457Z" transform="translate(1363.988 -100.679)"/>
      <path id="Path_5770" data-name="Path 5770" d="M-1349.61,198.89a2.762,2.762,0,0,0,.791.353l.247-.015A2.71,2.71,0,0,1-1349.61,198.89Z" transform="translate(1364.895 -110.845)"/>
      <path id="Path_5771" data-name="Path 5771" d="M-1351.26,161.07c.267,1.684.6,3.358,1.008,5.016Z" transform="translate(1365.714 -92.091)"/>
      <path id="Path_5772" data-name="Path 5772" d="M-1354.228,66.66l-.192.106c.217-.066.418-.116.605-.156C-1353.956,66.625-1354.087,66.64-1354.228,66.66Z" transform="translate(1367.281 -45.252)"/>
      <path id="Path_5773" data-name="Path 5773" d="M-1355.1,129.29a1.237,1.237,0,0,0-.136.01c.076-.005.156-.01.242-.01Z" transform="translate(1367.687 -76.332)"/>
      <path id="Path_5774" data-name="Path 5774" d="M-1350.252,166.086c-.408-1.659-.741-3.332-1.008-5.016Z" transform="translate(1365.714 -92.091)"/>
      <path id="Path_5775" data-name="Path 5775" d="M-1345.634,189.109a3.869,3.869,0,0,1-.106-.509Z" transform="translate(1362.976 -105.742)"/>
      <path id="Path_5776" data-name="Path 5776" d="M-1325.551,190.81a.8.8,0,0,1-.539.544A1.09,1.09,0,0,0-1325.551,190.81Z" transform="translate(1353.232 -106.838)"/>
      <path id="Path_5777" data-name="Path 5777" d="M-1347.493,179.847a13.062,13.062,0,0,1-.287-1.457Z" transform="translate(1363.988 -100.679)"/>
      <path id="Path_5778" data-name="Path 5778" d="M-1355,129.29c-.086,0-.166.005-.242.01a1.237,1.237,0,0,1,.136-.01Z" transform="translate(1367.687 -76.332)"/>
      <path id="Path_5779" data-name="Path 5779" d="M-1326.8,191.89a1.056,1.056,0,0,1-.459.1h-.252A2.042,2.042,0,0,0-1326.8,191.89Z" transform="translate(1353.937 -107.374)"/>
      <line id="Line_8626" data-name="Line 8626" x1="1.129" y1="5.636" transform="translate(26.78 56.401)" fill="none"/>
      <line id="Line_8627" data-name="Line 8627" x1="1.044" y1="5.203" transform="translate(28.438 64.679)" fill="none"/>
      <path id="Path_5780" data-name="Path 5780" d="M-1347.52,199.56a2.123,2.123,0,0,0,.313.02h12.85a3.067,3.067,0,0,0,.307-.015Z" transform="translate(1363.859 -111.177)"/>
      <path id="Path_5781" data-name="Path 5781" d="M-1301.611,62.329q.032-16.606.111-33.212a7.674,7.674,0,0,0-2.537-4.159c-5.223-1.9-8.593.045-8.853,5.223a2.086,2.086,0,0,1-.945,1.911l-.005.005a3.519,3.519,0,0,1-.642.3c-1.088.393-2.187.8-3.275,1.19l-.414.156-16.507,6.3-.011.005q-2.349,1.028-4.782,1.825l-.149.055-3.779,1.442-.016.01a9.8,9.8,0,0,1-1.507.575l-.021.005-1.587.6-.005.005a6.286,6.286,0,0,1-1.2.459h-.005l-10.1.267h-.043l-6.624.176-1.221.121a.041.041,0,0,1-.026.005c-.2.04-.409.091-.637.156-.01.005-.021.005-.032.01A15.432,15.432,0,0,0-1369.681,48c-.005.005-.011.015-.016.02a8.1,8.1,0,0,0-2.16,3.226,1.55,1.55,0,0,1-1.757,1.119c-3.54-.071-5.461,1.785-6.316,4.875q0,4.023.005,8.056a6.345,6.345,0,0,0,5.249,4.986c1.55-.393,2.511-.126,2.314,1.7-.132,1.291-.106,2.6-.148,3.9a9.389,9.389,0,0,0,.148,1.916l7.08,32.612a2.854,2.854,0,0,0,1.1,1.628,2.864,2.864,0,0,0,.281.212.224.224,0,0,0,.058.035,2.959,2.959,0,0,0,1.094.338h.016c4.729-.252,9.453-.181,14.182.005h.005a3.34,3.34,0,0,0,1.47-.509.3.3,0,0,1,.048-.035,2.964,2.964,0,0,0,1.279-3.065l-.43-2.032v-.01l-1.317-6.236-.716-3.4-.669-3.156-.016-.066c-.4-1.724-.764-3.458-1.1-5.2l-.016-.091-.478-2.264-.064-.287c-.425-1.875-.828-3.751-1.189-5.636-.435-2.264-.074-2.611,2.41-2.521,2.638.1,4.835,1.427,7.192,2.314,1.624.595,3.264,1.144,4.883,1.749.218.076.43.156.642.237a1.187,1.187,0,0,0,.117.05l5.541,2.122.111.04,9.315,3.559s7.914,2.9,8.651,3.907a.265.265,0,0,1,.053.1s.244,3.882,2.723,5.465a.028.028,0,0,0,.021.01,7.161,7.161,0,0,0,1.789.615.476.476,0,0,0,.09.015,5.524,5.524,0,0,0,3.567-.565c2.521-1.281,3.041-3.453,3.031-5.969C-1301.648,81.96-1301.632,72.145-1301.611,62.329Zm-70.761-1.059c0,1.17.01,2.339,0,3.5-.011.817.191,1.734-1.216,1.714-1.2-.015-2.219-.368-2.277-1.578-.117-2.41-.106-4.84.01-7.249.058-1.215,1.067-1.568,2.266-1.6,1.417-.035,1.205.9,1.216,1.7C-1372.362,58.936-1372.372,60.106-1372.372,61.271Zm21.671,46.269a1.041,1.041,0,0,1-.085.676.821.821,0,0,1-.568.544h-.005a1.162,1.162,0,0,1-.483.1h-8.62a1.146,1.146,0,0,1-1.136-.887l-.074-.363a3.73,3.73,0,0,1-.111-.509l-.005-.025-.775-3.665a12.482,12.482,0,0,1-.3-1.457l-.785-3.715c-.43-1.659-.78-3.332-1.062-5.016l-2.977-14.091c-.032-.156-.069-.308-.106-.464-.228-.988.1-1.4.971-1.457a1.369,1.369,0,0,1,.143-.01h8.646a1.142,1.142,0,0,1,1.141.887Zm.595-46.284c-.005,3.519-.053,7.038.021,10.557.026,1.3-.377,1.749-1.784,1.734-4.941-.066-9.883-.05-14.824.02-1.343.02-1.842-.328-1.826-1.684.069-5.863-.032-11.731.053-17.594.048-3.176,2.171-5.182,5.5-5.268,3.7-.091,7.409.03,11.114-.05,1.406-.03,1.81.418,1.778,1.724C-1350.16,54.213-1350.107,57.737-1350.107,61.255Zm35.922,25.01c-.154-.081-.318-.176-.509-.3-.287-.066-.573-.141-.855-.222a12.67,12.67,0,0,1-1.943-.741l-.058-.025-2.1-.791-.016-.005a18.738,18.738,0,0,1-3.5-1.336l-.032-.015L-1326,81.764l-.043-.015c-1.99-.676-3.965-1.4-5.886-2.238l-.016-.005-7.463-2.843-.026-.01a28.111,28.111,0,0,1-4.373-1.664l-.016-.005-1.6-.61-.01-.005-.016-.005c-.833-.192-.764-.983-.764-1.7,0-7.537.048-15.069-.027-22.605-.016-1.694.892-2.173,2.346-2.349,7.823-3.337,15.854-6.186,23.842-9.14,1.7-.676,3.439-1.275,5.09-2.052,1.672-.781,2.081-.333,2.07,1.341-.064,7.28-.016,14.559-.011,21.844.005,8.283.016,16.571-.021,24.854C-1312.938,85.439-1312.47,87.138-1314.185,86.265Zm8.556,7.234a1.589,1.589,0,0,1-1.8,1.17,1.513,1.513,0,0,1-1.486-1.22,12.261,12.261,0,0,1-.133-2.253q-.008-30.2-.011-60.41c0-1.265-.18-2.818,1.672-2.874,2.07-.066,1.895,1.593,1.895,2.934q.008,15.351,0,30.707h.016q0,14.973-.005,29.951A7.822,7.822,0,0,1-1305.629,93.5Z" transform="translate(1379.93 -24.244)" fill="#3cc"/>
      <path id="Path_5782" data-name="Path 5782" d="M-1349.9,198.647a2.635,2.635,0,0,1-.353-.247" transform="translate(1365.213 -110.602)" fill="none"/>
      <line id="Line_8628" data-name="Line 8628" x1="0.045" y1="0.222" transform="translate(7.144 53.336)" fill="none"/>
      <path id="Path_5783" data-name="Path 5783" d="M-1352.01,66.36l-1.159.121A5.657,5.657,0,0,1-1352.01,66.36Z" transform="translate(1366.661 -45.127)"/>
      <line id="Line_8629" data-name="Line 8629" x1="1.139" y2="0.459" transform="translate(30.581 20.33)" fill="none"/>
      <line id="Line_8630" data-name="Line 8630" x1="1.432" y2="0.575" transform="translate(33.253 19.14)" fill="none"/>
      <line id="Line_8631" data-name="Line 8631" x1="4.542" y2="1.825" transform="translate(38.43 15.808)" fill="none"/>
      <ellipse id="Ellipse_19" data-name="Ellipse 19" cx="1.452" cy="1.452" rx="1.452" ry="1.452" transform="translate(93.01 35.648)" fill="#3cc"/>
      <ellipse id="Ellipse_20" data-name="Ellipse 20" cx="1.452" cy="1.452" rx="1.452" ry="1.452" transform="translate(100.055 35.648)" fill="#3cc"/>
      <path id="Path_5787" data-name="Path 5787" d="M-1200.794,134.371v4.75a.6.6,0,0,0,.883.521l4.525-2.5a.6.6,0,0,0-.023-1.054l-4.525-2.252A.6.6,0,0,0-1200.794,134.371Z" transform="translate(1297.103 -78.556)" fill="#3cc"/>
      <rect id="Rectangle_56" data-name="Rectangle 56" width="9.224" height="3.166" rx="1.583" transform="translate(14.899 35.467)" fill="#212147"/>
      <rect id="Rectangle_57" data-name="Rectangle 57" width="9.224" height="3.166" rx="1.583" transform="translate(14.899 29.774)" fill="#212147"/>
      <rect id="Rectangle_58" data-name="Rectangle 58" width="9.224" height="3.166" rx="1.583" transform="translate(14.899 41.443)" fill="#212147"/>
    </g>
    <g id="Rectangle_1794" data-name="Rectangle 1794" transform="translate(17111 4743)" fill="none" stroke="#212147" stroke-width="3">
      <rect width="25" height="17" rx="3" stroke="none"/>
      <rect x="1.5" y="1.5" width="22" height="14" rx="1.5" fill="none"/>
    </g>
    <g id="Rectangle_1792" data-name="Rectangle 1792" transform="translate(17111 4764)" fill="none" stroke="#212147" stroke-width="3">
      <rect width="25" height="17" rx="3" stroke="none"/>
      <rect x="1.5" y="1.5" width="22" height="14" rx="1.5" fill="none"/>
    </g>
    <g id="Rectangle_1793" data-name="Rectangle 1793" transform="translate(17111 4785)" fill="none" stroke="#212147" stroke-width="3">
      <rect width="25" height="17" rx="3" stroke="none"/>
      <rect x="1.5" y="1.5" width="22" height="14" rx="1.5" fill="none"/>
    </g>
    <path id="Path_32822" data-name="Path 32822" d="M17148.748,4745.31" fill="none" stroke="#707070" stroke-width="1"/>
    <path id="Polygon_14" data-name="Polygon 14" d="M17.549.514a2,2,0,0,1,1.9,0L30.045,6.241A2,2,0,0,1,29.094,10H7.906a2,2,0,0,1-.951-3.759Z" transform="translate(17142 4753) rotate(180)" fill="#3cc"/>
  </g>
</svg>
