<svg xmlns="http://www.w3.org/2000/svg" width="159.694" height="120.997" viewBox="0 0 159.694 120.997">
  <g id="Group_14810" data-name="Group 14810" transform="translate(3 0)" opacity="0.9">
    <rect id="Rectangle_44" data-name="Rectangle 44" width="44.683" height="77.201" rx="8.072" transform="translate(0 29.168)" fill="none" stroke="#3cc" stroke-miterlimit="10" stroke-width="6"/>
    <rect id="Rectangle_45" data-name="Rectangle 45" width="29.289" height="5.129" rx="2.564" transform="translate(7.697 75.627)" fill="#212147"/>
    <rect id="Rectangle_46" data-name="Rectangle 46" width="14.486" height="5.129" rx="2.564" transform="translate(7.697 85.488)" fill="#212147"/>
    <rect id="Rectangle_47" data-name="Rectangle 47" width="10.214" height="5.129" rx="2.564" transform="translate(17.076 37.358)" fill="#212147"/>
    <path id="Path_5757" data-name="Path 5757" d="M-1291.627-110.262a2.267,2.267,0,0,0-3.207,0l-7.392,7.392-2.374-2.374a2.267,2.267,0,0,0-3.207,0h0a2.268,2.268,0,0,0,0,3.207l3.608,3.608a2.222,2.222,0,0,0,.323.418,2.257,2.257,0,0,0,1.651.659,2.259,2.259,0,0,0,1.651-.659,2.244,2.244,0,0,0,.323-.418l8.625-8.625A2.267,2.267,0,0,0-1291.627-110.262Z" transform="translate(1322.059 167.312)" fill="#212147"/>
    <rect id="Rectangle_48" data-name="Rectangle 48" width="75.252" height="7.069" rx="3.534" transform="translate(52.762 113.929)" fill="#3cc"/>
    <rect id="Rectangle_49" data-name="Rectangle 49" width="29.289" height="5.129" rx="2.564" transform="translate(88.008 20.273)" fill="#212147"/>
    <rect id="Rectangle_50" data-name="Rectangle 50" width="14.486" height="5.129" rx="2.564" transform="translate(88.235 28.874)" fill="#212147"/>
    <rect id="Rectangle_51" data-name="Rectangle 51" width="29.289" height="5.129" rx="2.564" transform="translate(88.008 44.556)" fill="#212147"/>
    <rect id="Rectangle_52" data-name="Rectangle 52" width="28.141" height="5.129" rx="2.564" transform="translate(88.027 53.157)" fill="#212147"/>
    <rect id="Rectangle_53" data-name="Rectangle 53" width="29.289" height="5.129" rx="2.564" transform="translate(88.008 69.192)" fill="#212147"/>
    <rect id="Rectangle_54" data-name="Rectangle 54" width="14.486" height="5.129" rx="2.564" transform="translate(88.235 77.794)" fill="#212147"/>
    <path id="Path_5758" data-name="Path 5758" d="M-1225.612-157.146a2.268,2.268,0,0,0-3.207,0l-7.392,7.392-2.374-2.374a2.268,2.268,0,0,0-3.207,0h0a2.267,2.267,0,0,0,0,3.207l3.608,3.608a2.257,2.257,0,0,0,.323.418,2.26,2.26,0,0,0,1.651.66,2.256,2.256,0,0,0,1.651-.66,2.272,2.272,0,0,0,.324-.418l8.625-8.625A2.267,2.267,0,0,0-1225.612-157.146Z" transform="translate(1306.796 181.378)" fill="#212147"/>
    <path id="Path_5759" data-name="Path 5759" d="M-1225.612-127.052a2.268,2.268,0,0,0-3.207,0l-7.392,7.392-2.374-2.374a2.267,2.267,0,0,0-3.207,0h0a2.267,2.267,0,0,0,0,3.207l3.608,3.608a2.229,2.229,0,0,0,.323.417,2.257,2.257,0,0,0,1.651.66,2.254,2.254,0,0,0,1.651-.66,2.225,2.225,0,0,0,.324-.418l8.625-8.624A2.268,2.268,0,0,0-1225.612-127.052Z" transform="translate(1306.796 172.349)" fill="#212147"/>
    <path id="Path_5760" data-name="Path 5760" d="M-1225.612-94.28a2.268,2.268,0,0,0-3.207,0l-7.392,7.392-2.374-2.374a2.268,2.268,0,0,0-3.207,0h0a2.267,2.267,0,0,0,0,3.207l3.608,3.608a2.232,2.232,0,0,0,.323.418,2.26,2.26,0,0,0,1.651.66,2.256,2.256,0,0,0,1.651-.66,2.27,2.27,0,0,0,.324-.418l8.625-8.625A2.267,2.267,0,0,0-1225.612-94.28Z" transform="translate(1306.796 162.517)" fill="#212147"/>
    <rect id="Rectangle_55" data-name="Rectangle 55" width="7.697" height="18.395" transform="translate(87.044 99.03)" fill="#3cc"/>
    <path id="Path_5761" data-name="Path 5761" d="M-1156.95-179.643v77.557a11.842,11.842,0,0,1-11.844,11.837l-102.639-.332.811-2.727-.811-2.948,102.639-.293a5.541,5.541,0,0,0,5.544-5.537v-77.557a5.541,5.541,0,0,0-5.544-5.537h-111.373a5.537,5.537,0,0,0-5.544,5.537v5.831a3.15,3.15,0,0,1-3.15,3.15,3.107,3.107,0,0,1-2.226-.924,3.119,3.119,0,0,1-.924-2.226v-5.831a11.837,11.837,0,0,1,11.843-11.837h111.373A11.842,11.842,0,0,1-1156.95-179.643Z" transform="translate(1313.645 191.48)" fill="#3cc"/>
    <line id="Line_8624" data-name="Line 8624" y1="0.854" transform="translate(41.513 101.23)" fill="none"/>
    <line id="Line_8625" data-name="Line 8625" y1="1.75" transform="translate(41.513 93.181)" fill="none"/>
  </g>
</svg>
