<svg xmlns="http://www.w3.org/2000/svg" xmlns:xlink="http://www.w3.org/1999/xlink" width="116" height="88" viewBox="0 0 116 88">
  <defs>
    <clipPath id="clip-path">
      <rect id="Rectangle_1789" data-name="Rectangle 1789" width="116" height="88" transform="translate(17024 4515)" fill="#7a7a7a"/>
    </clipPath>
  </defs>
  <g id="Mask_Group_42" data-name="Mask Group 42" transform="translate(-17024 -4515)" clip-path="url(#clip-path)">
    <g id="Group_14931" data-name="Group 14931" transform="translate(17027.707 4516.995)" opacity="0.9">
      <rect id="Rectangle_44" data-name="Rectangle 44" width="30.898" height="53.383" rx="8.072" transform="translate(0 20.169)" fill="none" stroke="#3cc" stroke-miterlimit="10" stroke-width="4"/>
      <rect id="Rectangle_45" data-name="Rectangle 45" width="20.253" height="3.547" rx="1.773" transform="translate(5.322 52.295)" fill="#212147"/>
      <rect id="Rectangle_46" data-name="Rectangle 46" width="10.017" height="3.547" rx="1.773" transform="translate(5.322 59.114)" fill="#212147"/>
      <rect id="Rectangle_47" data-name="Rectangle 47" width="7.063" height="3.547" rx="1.773" transform="translate(11.808 25.833)" fill="#212147"/>
      <path id="Path_5757" data-name="Path 5757" d="M-1296.824-110.467a1.567,1.567,0,0,0-2.218,0l-5.111,5.111-1.642-1.642a1.567,1.567,0,0,0-2.218,0h0a1.568,1.568,0,0,0,0,2.218l2.494,2.495a1.553,1.553,0,0,0,.224.289,1.561,1.561,0,0,0,1.141.456,1.563,1.563,0,0,0,1.142-.456,1.549,1.549,0,0,0,.223-.289l5.964-5.964A1.568,1.568,0,0,0-1296.824-110.467Z" transform="translate(1317.867 149.917)" fill="#212147"/>
      <rect id="Rectangle_48" data-name="Rectangle 48" width="52.036" height="4.888" rx="2.444" transform="translate(38.041 78.781)" fill="#3cc"/>
      <rect id="Rectangle_49" data-name="Rectangle 49" width="20.253" height="3.547" rx="1.773" transform="translate(58.254 14.018)" fill="#212147"/>
      <rect id="Rectangle_50" data-name="Rectangle 50" width="10.017" height="3.547" rx="1.773" transform="translate(58.254 19.966)" fill="#212147"/>
      <rect id="Rectangle_51" data-name="Rectangle 51" width="20.253" height="3.547" rx="1.773" transform="translate(58.254 30.81)" fill="#212147"/>
      <rect id="Rectangle_52" data-name="Rectangle 52" width="19.459" height="3.547" rx="1.773" transform="translate(58.254 36.758)" fill="#212147"/>
      <rect id="Rectangle_53" data-name="Rectangle 53" width="20.253" height="3.547" rx="1.773" transform="translate(58.254 47.846)" fill="#212147"/>
      <rect id="Rectangle_54" data-name="Rectangle 54" width="10.017" height="3.547" rx="1.773" transform="translate(58.254 53.793)" fill="#212147"/>
      <path id="Path_5758" data-name="Path 5758" d="M-1230.809-157.351a1.568,1.568,0,0,0-2.218,0l-5.112,5.111-1.642-1.642a1.568,1.568,0,0,0-2.218,0h0a1.567,1.567,0,0,0,0,2.218l2.495,2.495a1.56,1.56,0,0,0,.223.289,1.563,1.563,0,0,0,1.142.456,1.56,1.56,0,0,0,1.141-.456,1.569,1.569,0,0,0,.224-.289l5.964-5.964A1.568,1.568,0,0,0-1230.809-157.351Z" transform="translate(1283.805 174.107)" fill="#212147"/>
      <path id="Path_5759" data-name="Path 5759" d="M-1230.809-127.257a1.568,1.568,0,0,0-2.218,0l-5.112,5.112-1.642-1.642a1.568,1.568,0,0,0-2.218,0h0a1.567,1.567,0,0,0,0,2.218l2.495,2.495a1.541,1.541,0,0,0,.223.288,1.561,1.561,0,0,0,1.142.456,1.558,1.558,0,0,0,1.141-.456,1.538,1.538,0,0,0,.224-.289l5.964-5.964A1.568,1.568,0,0,0-1230.809-127.257Z" transform="translate(1283.805 158.58)" fill="#212147"/>
      <path id="Path_5760" data-name="Path 5760" d="M-1230.809-94.485a1.568,1.568,0,0,0-2.218,0l-5.112,5.111-1.642-1.642a1.568,1.568,0,0,0-2.218,0h0a1.567,1.567,0,0,0,0,2.218l2.495,2.495a1.543,1.543,0,0,0,.223.289,1.563,1.563,0,0,0,1.142.456,1.56,1.56,0,0,0,1.141-.456,1.568,1.568,0,0,0,.224-.289l5.964-5.964A1.568,1.568,0,0,0-1230.809-94.485Z" transform="translate(1283.805 141.67)" fill="#212147"/>
      <rect id="Rectangle_55" data-name="Rectangle 55" width="5.323" height="12.72" transform="translate(61.594 68.478)" fill="#3cc"/>
      <path id="Path_5761" data-name="Path 5761" d="M-1198.618-183.3v53.63a8.188,8.188,0,0,1-8.19,8.185h-73.223v-4.356h73.223a3.832,3.832,0,0,0,3.833-3.829V-183.3a3.832,3.832,0,0,0-3.833-3.829h-77.013a3.829,3.829,0,0,0-3.833,3.829v4.032a2.178,2.178,0,0,1-2.178,2.178,2.148,2.148,0,0,1-1.539-.639,2.157,2.157,0,0,1-.639-1.539V-183.3a8.185,8.185,0,0,1,8.19-8.185h77.013A8.188,8.188,0,0,1-1198.618-183.3Z" transform="translate(1309.373 191.48)" fill="#3cc"/>
      <line id="Line_8624" data-name="Line 8624" y1="0.591" transform="translate(29.343 70)" fill="none"/>
      <line id="Line_8625" data-name="Line 8625" y1="1.21" transform="translate(29.343 64.434)" fill="none"/>
    </g>
  </g>
</svg>
