<svg xmlns="http://www.w3.org/2000/svg" width="154.228" height="116.269" viewBox="0 0 154.228 116.269">
  <g id="Group_14848" data-name="Group 14848" transform="translate(4365.275 3144.812)">
    <g id="Group_14812" data-name="Group 14812" transform="translate(-4365.275 -3109.604)">
      <path id="Path_6370" data-name="Path 6370" d="M468.737,140.932l6.2-.828-.983-7.234-6.173.828c-.208-.621-.453-1.229-.712-1.824l5.1-3.585-4.206-5.979-5.1,3.584c-.467-.453-.971-.88-1.476-1.294l2.873-5.525-6.483-3.364-2.873,5.525a19.908,19.908,0,0,0-2.8-.608v-6.7H444.8v7.052a20.981,20.981,0,0,0-2.044.608l-3.2-5.357-6.275,3.714,3.183,5.371c-.478.44-.944.893-1.4,1.372l-5.292-3.287-3.857,6.2,5.293,3.287a18.6,18.6,0,0,0-.608,1.864l-6.224-.479-.557,7.286,6.2.479a18.9,18.9,0,0,0,.323,1.941l-5.733,2.433,2.86,6.716,5.72-2.433c.375.543.763,1.074,1.178,1.578l-3.96,4.8,5.63,4.645,3.96-4.8a18.857,18.857,0,0,0,1.774.867l-1.294,6.082,7.131,1.527,1.307-6.1c.143,0,.284.013.44.013a15.121,15.121,0,0,0,1.527-.077l1.644,6.017,7.04-1.928-1.643-6.018a16.966,16.966,0,0,0,1.708-.958l4.245,4.581,5.357-4.956-4.245-4.581c.388-.518.751-1.074,1.087-1.63l5.876,2.109L474.419,145l-5.876-2.109A19.519,19.519,0,0,0,468.737,140.932Zm-19.385,9.292a10.359,10.359,0,1,1,10.353-10.353A10.353,10.353,0,0,1,449.352,150.224Z" transform="translate(-423.82 -113.925)" fill="#3cc"/>
      <path id="Path_6371" data-name="Path 6371" d="M460.393,140.578a10.359,10.359,0,1,1-10.353-10.366A10.35,10.35,0,0,1,460.393,140.578Z" transform="translate(-424.508 -114.631)" fill="none"/>
    </g>
    <g id="Group_14811" data-name="Group 14811" transform="translate(-4344.09 -3144.812)" opacity="0.9">
      <rect id="Rectangle_48" data-name="Rectangle 48" width="75.573" height="6.792" rx="3.396" transform="translate(28.735 109.477)" fill="#212147"/>
      <rect id="Rectangle_49" data-name="Rectangle 49" width="57.717" height="4.928" rx="2.464" transform="translate(42.301 19.479)" fill="#3cc"/>
      <rect id="Rectangle_50" data-name="Rectangle 50" width="18.92" height="4.928" rx="2.464" transform="translate(41.773 27.746)" fill="#3cc"/>
      <rect id="Rectangle_51" data-name="Rectangle 51" width="57.717" height="4.928" rx="2.464" transform="translate(42.301 42.814)" fill="#3cc"/>
      <rect id="Rectangle_52" data-name="Rectangle 52" width="56.613" height="4.928" rx="2.464" transform="translate(42.277 51.079)" fill="#3cc"/>
      <rect id="Rectangle_53" data-name="Rectangle 53" width="57.717" height="4.928" rx="2.464" transform="translate(42.301 66.488)" fill="#3cc"/>
      <rect id="Rectangle_54" data-name="Rectangle 54" width="18.92" height="4.928" rx="2.464" transform="translate(41.773 74.753)" fill="#3cc"/>
      <rect id="Rectangle_55" data-name="Rectangle 55" width="7.396" height="17.676" transform="translate(63.102 95.159)" fill="#212147"/>
      <path id="Path_5761" data-name="Path 5761" d="M-1158.967-180.106v74.526a11.525,11.525,0,0,1-11.667,11.374l-116.414.4v-6.054l116.414-.4a5.393,5.393,0,0,0,5.461-5.32v-74.526a5.393,5.393,0,0,0-5.461-5.32h-109.709a5.389,5.389,0,0,0-5.461,5.32l.124,17.968a3.066,3.066,0,0,1-3.1,3.027,3.1,3.1,0,0,1-2.192-.888,2.96,2.96,0,0,1-.91-2.139l-.124-17.968a11.52,11.52,0,0,1,11.667-11.374h109.709A11.525,11.525,0,0,1-1158.967-180.106Z" transform="translate(1292.01 191.48)" fill="#212147"/>
      <line id="Line_8624" data-name="Line 8624" y1="0.821" transform="translate(16.647 97.274)" fill="none"/>
      <line id="Line_8625" data-name="Line 8625" y1="1.682" transform="translate(16.647 89.539)" fill="none"/>
    </g>
  </g>
</svg>
