<svg xmlns="http://www.w3.org/2000/svg" xmlns:xlink="http://www.w3.org/1999/xlink" width="116" height="88" viewBox="0 0 116 88">
  <defs>
    <clipPath id="clip-path">
      <rect id="Rectangle_1787" data-name="Rectangle 1787" width="116" height="88" transform="translate(17441 4515)" fill="#7a7a7a"/>
    </clipPath>
  </defs>
  <g id="Mask_Group_40" data-name="Mask Group 40" transform="translate(-17441 -4515)" clip-path="url(#clip-path)">
    <g id="Group_14812" data-name="Group 14812" transform="translate(17441.338 4532.094)">
      <path id="Path_6370" data-name="Path 6370" d="M466.462,139.564l5.885-.786-.934-6.867-5.86.786c-.2-.589-.43-1.167-.676-1.732l4.84-3.4-3.993-5.676-4.84,3.4c-.443-.43-.922-.836-1.4-1.229l2.727-5.246-6.155-3.194-2.727,5.246a18.9,18.9,0,0,0-2.654-.578v-6.363h-6.941v6.695a19.911,19.911,0,0,0-1.941.578l-3.035-5.086-5.957,3.525,3.021,5.1c-.454.418-.9.848-1.327,1.3l-5.024-3.12L425.81,128.8l5.025,3.12a17.641,17.641,0,0,0-.578,1.769l-5.908-.455-.529,6.917,5.885.455a17.935,17.935,0,0,0,.307,1.843l-5.443,2.309,2.715,6.376,5.43-2.309c.356.516.725,1.02,1.118,1.5l-3.76,4.558,5.345,4.41,3.759-4.557a17.918,17.918,0,0,0,1.684.823l-1.229,5.774,6.769,1.449L447.641,157c.135,0,.27.013.418.013a14.357,14.357,0,0,0,1.449-.074l1.56,5.712,6.683-1.83-1.56-5.713a16.1,16.1,0,0,0,1.622-.909l4.03,4.349,5.086-4.705-4.03-4.349c.369-.491.713-1.02,1.032-1.548l5.578,2,2.347-6.523-5.578-2A18.531,18.531,0,0,0,466.462,139.564Zm-18.4,8.821a9.834,9.834,0,1,1,9.828-9.828A9.828,9.828,0,0,1,448.059,148.385Z" transform="translate(-423.82 -113.925)" fill="#212147"/>
      <path id="Path_6371" data-name="Path 6371" d="M459.343,140.053a9.834,9.834,0,1,1-9.828-9.841A9.825,9.825,0,0,1,459.343,140.053Z" transform="translate(-425.276 -115.421)" fill="none"/>
    </g>
    <g id="Group_14811" data-name="Group 14811" transform="translate(17461.689 4516.528)" opacity="0.9">
      <rect id="Rectangle_48" data-name="Rectangle 48" width="52.64" height="4.945" rx="2.472" transform="translate(20.918 79.695)" fill="#3cc"/>
      <rect id="Rectangle_49" data-name="Rectangle 49" width="33.662" height="3.588" rx="1.794" transform="translate(35.29 14.18)" fill="#212147"/>
      <rect id="Rectangle_50" data-name="Rectangle 50" width="10.133" height="3.588" rx="1.794" transform="translate(35.29 20.198)" fill="#212147"/>
      <rect id="Rectangle_51" data-name="Rectangle 51" width="33.662" height="3.588" rx="1.794" transform="translate(35.29 31.167)" fill="#212147"/>
      <rect id="Rectangle_52" data-name="Rectangle 52" width="32.858" height="3.588" rx="1.794" transform="translate(35.29 37.184)" fill="#212147"/>
      <rect id="Rectangle_53" data-name="Rectangle 53" width="33.662" height="3.588" rx="1.794" transform="translate(35.29 48.401)" fill="#212147"/>
      <rect id="Rectangle_54" data-name="Rectangle 54" width="10.133" height="3.588" rx="1.794" transform="translate(35.29 54.418)" fill="#212147"/>
      <rect id="Rectangle_55" data-name="Rectangle 55" width="5.384" height="12.868" transform="translate(44.744 69.273)" fill="#3cc"/>
      <path id="Path_5761" data-name="Path 5761" d="M-1197.533-183.2v54.252a8.283,8.283,0,0,1-8.285,8.28h-74.073v-4.407h74.073a3.876,3.876,0,0,0,3.878-3.873V-183.2a3.876,3.876,0,0,0-3.878-3.873h-77.907a3.873,3.873,0,0,0-3.878,3.873v4.079a2.2,2.2,0,0,1-2.2,2.2,2.173,2.173,0,0,1-1.557-.646,2.182,2.182,0,0,1-.646-1.557V-183.2a8.28,8.28,0,0,1,8.285-8.28h77.907A8.283,8.283,0,0,1-1197.533-183.2Z" transform="translate(1292.01 191.48)" fill="#3cc"/>
      <line id="Line_8624" data-name="Line 8624" y1="0.597" transform="translate(12.119 70.812)" fill="none"/>
      <line id="Line_8625" data-name="Line 8625" y1="1.224" transform="translate(12.119 65.181)" fill="none"/>
    </g>
  </g>
</svg>
