<svg xmlns="http://www.w3.org/2000/svg" width="161.872" height="135.639" viewBox="0 0 161.872 135.639">
  <g id="Group_14813" data-name="Group 14813" transform="translate(0 0)" opacity="0.9">
    <path id="Path_5762" data-name="Path 5762" d="M-1317.309,183.315c-.5-2.444-1.006-4.881-1.5-7.325l1.918,9.568A10.325,10.325,0,0,0-1317.309,183.315Z" transform="translate(1366.087 -58.613)"/>
    <path id="Path_5763" data-name="Path 5763" d="M-1320.79,199.341l.573.023a4.367,4.367,0,0,0,1.57-.8A4.71,4.71,0,0,1-1320.79,199.341Z" transform="translate(1366.535 -63.725)"/>
    <path id="Path_5764" data-name="Path 5764" d="M-1321.111,164.367c-.108-.464-.209-.913-.309-1.377l.975,4.842C-1320.677,166.68-1320.9,165.527-1321.111,164.367Z" transform="translate(1366.678 -55.669)"/>
    <path id="Path_5765" data-name="Path 5765" d="M-1323.986,150.082c-.155-.735-.317-1.47-.464-2.212l.7,3.473C-1323.831,150.925-1323.909,150.5-1323.986,150.082Z" transform="translate(1367.364 -52.244)"/>
    <path id="Path_5766" data-name="Path 5766" d="M-1326.09,191.645a1.228,1.228,0,0,0,.828-.835A1.674,1.674,0,0,1-1326.09,191.645Z" transform="translate(1367.735 -61.97)"/>
    <path id="Path_5767" data-name="Path 5767" d="M-1327.51,192.045h.387a1.62,1.62,0,0,0,.7-.155A3.134,3.134,0,0,1-1327.51,192.045Z" transform="translate(1368.057 -62.214)"/>
    <path id="Path_5768" data-name="Path 5768" d="M-1345.74,188.6a5.96,5.96,0,0,0,.163.781Z" transform="translate(1372.186 -61.469)"/>
    <path id="Path_5769" data-name="Path 5769" d="M-1347.78,178.39a20.031,20.031,0,0,0,.441,2.235Z" transform="translate(1372.648 -59.157)"/>
    <path id="Path_5770" data-name="Path 5770" d="M-1349.61,198.89a4.238,4.238,0,0,0,1.214.541l.379-.023A4.159,4.159,0,0,1-1349.61,198.89Z" transform="translate(1373.063 -63.8)"/>
    <path id="Path_5771" data-name="Path 5771" d="M-1351.26,161.07q.615,3.875,1.547,7.7Z" transform="translate(1373.436 -55.234)"/>
    <path id="Path_5772" data-name="Path 5772" d="M-1354.126,66.687c-.1.054-.193.108-.294.162.333-.1.642-.178.928-.24C-1353.708,66.633-1353.909,66.656-1354.126,66.687Z" transform="translate(1374.152 -33.839)"/>
    <path id="Path_5773" data-name="Path 5773" d="M-1355.031,129.29a1.9,1.9,0,0,0-.209.015c.116-.008.24-.015.371-.015Z" transform="translate(1374.338 -48.036)"/>
    <path id="Path_5774" data-name="Path 5774" d="M-1349.713,168.766q-.94-3.817-1.547-7.7Z" transform="translate(1373.436 -55.234)"/>
    <path id="Path_5775" data-name="Path 5775" d="M-1345.577,189.381a5.96,5.96,0,0,1-.163-.781Z" transform="translate(1372.186 -61.469)"/>
    <path id="Path_5776" data-name="Path 5776" d="M-1325.262,190.81a1.228,1.228,0,0,1-.828.835A1.674,1.674,0,0,0-1325.262,190.81Z" transform="translate(1367.735 -61.97)"/>
    <path id="Path_5777" data-name="Path 5777" d="M-1347.339,180.625a20.031,20.031,0,0,1-.441-2.235Z" transform="translate(1372.648 -59.157)"/>
    <path id="Path_5778" data-name="Path 5778" d="M-1354.869,129.29c-.132,0-.255.008-.371.015a1.9,1.9,0,0,1,.209-.015Z" transform="translate(1374.338 -48.036)"/>
    <path id="Path_5779" data-name="Path 5779" d="M-1326.419,191.89a1.62,1.62,0,0,1-.7.155h-.387A3.134,3.134,0,0,0-1326.419,191.89Z" transform="translate(1368.057 -62.214)"/>
    <line id="Line_8626" data-name="Line 8626" x1="1.733" y1="8.648" transform="translate(41.089 86.537)" fill="none"/>
    <line id="Line_8627" data-name="Line 8627" x1="1.601" y1="7.983" transform="translate(43.634 99.238)" fill="none"/>
    <path id="Path_5780" data-name="Path 5780" d="M-1347.52,199.56a3.259,3.259,0,0,0,.48.031h19.717a4.7,4.7,0,0,0,.472-.023Z" transform="translate(1372.589 -63.952)"/>
    <path id="Path_5781" data-name="Path 5781" d="M-1265.792,82.679q.047-25.479.162-50.959a11.892,11.892,0,0,0-3.7-6.381c-7.611-2.916-12.523.07-12.9,8.014a3.255,3.255,0,0,1-1.377,2.932l-.008.008a5.015,5.015,0,0,1-.936.464c-1.586.6-3.187,1.222-4.772,1.825l-.6.24-24.056,9.669-.015.008a74.083,74.083,0,0,1-6.969,2.8l-.217.085-5.507,2.212-.023.015a13.853,13.853,0,0,1-2.2.882l-.031.008-2.313.928-.008.008a8.886,8.886,0,0,1-1.748.7h-.008l-14.72.41h-.062l-9.653.271-1.779.186a.058.058,0,0,1-.039.008c-.286.062-.6.139-.928.24-.015.008-.031.008-.046.015a22.488,22.488,0,0,0-4.749,3.427c-.008.008-.016.023-.024.031a12.482,12.482,0,0,0-3.148,4.95,2.26,2.26,0,0,1-2.561,1.717c-5.159-.108-7.959,2.738-9.2,7.48q0,6.173.008,12.361a9.473,9.473,0,0,0,7.65,7.65c2.259-.6,3.659-.193,3.372,2.614-.193,1.98-.154,3.984-.216,5.979a15.16,15.16,0,0,0,.216,2.939l10.319,50.038a4.392,4.392,0,0,0,1.609,2.5,4.181,4.181,0,0,0,.41.325.318.318,0,0,0,.085.054,4.157,4.157,0,0,0,1.593.518h.023c6.892-.387,13.776-.278,20.668.008h.008a4.708,4.708,0,0,0,2.142-.781.438.438,0,0,1,.07-.054,4.655,4.655,0,0,0,1.864-4.7l-.627-3.117v-.015l-1.919-9.568-1.044-5.213-.974-4.842-.023-.1c-.588-2.645-1.114-5.306-1.6-7.983l-.023-.139-.7-3.473-.093-.441c-.619-2.877-1.207-5.755-1.733-8.648-.634-3.473-.108-4.007,3.512-3.868,3.844.147,7.047,2.189,10.481,3.55,2.367.913,4.757,1.756,7.116,2.684.317.116.627.24.936.364a1.7,1.7,0,0,0,.17.077l8.076,3.256.162.062,13.575,5.461s11.533,4.448,12.608,5.995a.409.409,0,0,1,.077.155s.356,5.956,3.968,8.385a.04.04,0,0,0,.031.015,10.088,10.088,0,0,0,2.607.944.66.66,0,0,0,.131.023,7.7,7.7,0,0,0,5.2-.866c3.674-1.965,4.432-5.3,4.417-9.158C-1265.846,112.8-1265.822,97.739-1265.792,82.679Zm-103.124-1.624c0,1.795.015,3.589,0,5.376-.016,1.253.278,2.661-1.772,2.63-1.748-.023-3.233-.565-3.318-2.421-.17-3.7-.155-7.426.015-11.123.085-1.864,1.555-2.406,3.3-2.452,2.065-.054,1.756,1.377,1.772,2.614C-1368.9,77.474-1368.915,79.268-1368.915,81.055Zm31.582,70.992a1.672,1.672,0,0,1-.124,1.037,1.228,1.228,0,0,1-.827.835h-.008a1.621,1.621,0,0,1-.7.155h-12.562a1.69,1.69,0,0,1-1.655-1.361l-.108-.557a5.961,5.961,0,0,1-.162-.781l-.008-.039-1.129-5.623a20,20,0,0,1-.441-2.235l-1.145-5.7c-.627-2.545-1.137-5.113-1.547-7.7l-4.339-21.619c-.046-.24-.1-.472-.155-.712-.333-1.516.139-2.143,1.416-2.235a1.892,1.892,0,0,1,.209-.015h12.6a1.684,1.684,0,0,1,1.663,1.361Zm.867-71.016c-.008,5.4-.077,10.8.031,16.2.039,1.988-.549,2.684-2.6,2.661-7.2-.1-14.4-.077-21.6.031-1.957.031-2.684-.5-2.661-2.584.1-9-.046-18,.078-27,.07-4.873,3.164-7.952,8.014-8.083,5.391-.139,10.8.046,16.2-.077,2.05-.046,2.638.642,2.591,2.645C-1336.544,70.226-1336.466,75.633-1336.466,81.032Zm52.351,38.374c-.224-.124-.464-.271-.743-.456-.418-.1-.835-.217-1.245-.34a17.9,17.9,0,0,1-2.831-1.137l-.085-.039-3.055-1.214-.023-.008a26.469,26.469,0,0,1-5.105-2.05l-.046-.023-4.092-1.64-.062-.023c-2.9-1.036-5.778-2.143-8.578-3.434l-.023-.008-10.876-4.363-.039-.015a39.721,39.721,0,0,1-6.374-2.553l-.023-.008-2.336-.936-.016-.008-.023-.008c-1.214-.294-1.114-1.508-1.114-2.614,0-11.564.07-23.12-.039-34.684-.023-2.6,1.3-3.334,3.419-3.6,11.4-5.121,23.1-9.491,34.746-14.024,2.475-1.037,5.012-1.957,7.418-3.148,2.437-1.2,3.032-.511,3.017,2.058-.093,11.169-.023,22.339-.015,33.516.007,12.709.023,25.425-.031,38.134C-1282.3,118.137-1281.617,120.744-1284.116,119.405Zm12.469,11.1a2.319,2.319,0,0,1-2.63,1.795,2.239,2.239,0,0,1-2.166-1.872,19.812,19.812,0,0,1-.193-3.458q-.012-46.341-.016-92.689c0-1.941-.263-4.324,2.437-4.409,3.017-.1,2.761,2.444,2.761,4.5q.012,23.553,0,47.114h.023q0,22.973-.008,45.954A12.619,12.619,0,0,1-1271.647,130.505Z" transform="translate(1379.93 -24.244)" fill="#3cc"/>
    <path id="Path_5782" data-name="Path 5782" d="M-1349.708,198.779a4.03,4.03,0,0,1-.541-.379" transform="translate(1373.208 -63.689)" fill="none"/>
    <line id="Line_8628" data-name="Line 8628" x1="0.07" y1="0.34" transform="translate(10.961 81.834)" fill="none"/>
    <path id="Path_5783" data-name="Path 5783" d="M-1351.391,66.36l-1.779.186A8.68,8.68,0,0,1-1351.391,66.36Z" transform="translate(1373.869 -33.782)"/>
    <line id="Line_8629" data-name="Line 8629" x1="1.748" y2="0.704" transform="translate(46.921 31.193)" fill="none"/>
    <line id="Line_8630" data-name="Line 8630" x1="2.197" y2="0.882" transform="translate(51.021 29.367)" fill="none"/>
    <line id="Line_8631" data-name="Line 8631" x1="6.969" y2="2.8" transform="translate(58.965 24.254)" fill="none"/>
    <path id="Path_5784" data-name="Path 5784" d="M-1185.393,121.98h-31.551a3.47,3.47,0,0,0-3.465,3.465v20.614a3.47,3.47,0,0,0,3.465,3.465h31.551a3.469,3.469,0,0,0,3.465-3.465V125.445A3.469,3.469,0,0,0-1185.393,121.98Zm-1.686,18.317a3.465,3.465,0,0,1-3.465,3.465h-20.614a3.465,3.465,0,0,1-3.465-3.465v-9.731a3.465,3.465,0,0,1,3.465-3.465h20.614a3.465,3.465,0,0,1,3.465,3.465Z" transform="translate(1343.8 -46.38)" fill="#fff"/>
    <path id="Path_5785" data-name="Path 5785" d="M-1185.393,80.45h-31.551a3.463,3.463,0,0,0-3.465,3.458v20.622a3.463,3.463,0,0,0,3.465,3.458h31.551a3.463,3.463,0,0,0,3.465-3.458V83.908A3.463,3.463,0,0,0-1185.393,80.45Zm-1.686,18.309a3.465,3.465,0,0,1-3.465,3.465h-20.614a3.465,3.465,0,0,1-3.465-3.465V89.036a3.46,3.46,0,0,1,3.465-3.465h20.614a3.46,3.46,0,0,1,3.465,3.465Z" transform="translate(1343.8 -36.974)" fill="#fff"/>
    <path id="Path_5786" data-name="Path 5786" d="M-1185.393,37.8h-31.551a3.463,3.463,0,0,0-3.465,3.458V61.879a3.463,3.463,0,0,0,3.465,3.458h31.551a3.463,3.463,0,0,0,3.465-3.458V41.258A3.463,3.463,0,0,0-1185.393,37.8Zm-1.686,18.309a3.465,3.465,0,0,1-3.465,3.465h-20.614a3.465,3.465,0,0,1-3.465-3.465V46.386a3.424,3.424,0,0,1,.812-2.228,3.445,3.445,0,0,1,2.653-1.238h20.614a3.454,3.454,0,0,1,2.452,1.013,3.453,3.453,0,0,1,1.014,2.452Z" transform="translate(1343.8 -27.314)" fill="#fff"/>
    <ellipse id="Ellipse_19" data-name="Ellipse 19" cx="2.228" cy="2.228" rx="2.228" ry="2.228" transform="translate(135.037 54.695)" fill="#fff"/>
    <ellipse id="Ellipse_20" data-name="Ellipse 20" cx="2.228" cy="2.228" rx="2.228" ry="2.228" transform="translate(145.846 54.695)" fill="#fff"/>
    <path id="Path_5787" data-name="Path 5787" d="M-1200.794,134.689v7.288a.914.914,0,0,0,1.355.8l6.943-3.833a.913.913,0,0,0-.035-1.617l-6.942-3.455A.914.914,0,0,0-1200.794,134.689Z" transform="translate(1339.357 -49.052)" fill="#fff"/>
    <path id="Path_5788" data-name="Path 5788" d="M-1183.43,41.48l-14.518,11.7a2.947,2.947,0,0,1-3.391.176l-16.481-11.6Z" transform="translate(1343.213 -28.147)" fill="#fff"/>
    <rect id="Rectangle_56" data-name="Rectangle 56" width="14.152" height="4.857" rx="2.428" transform="translate(22.86 54.418)" fill="#fff"/>
    <rect id="Rectangle_57" data-name="Rectangle 57" width="14.152" height="4.857" rx="2.428" transform="translate(22.86 45.683)" fill="#fff"/>
    <rect id="Rectangle_58" data-name="Rectangle 58" width="14.152" height="4.857" rx="2.428" transform="translate(22.86 63.586)" fill="#fff"/>
  </g>
</svg>
