<svg xmlns="http://www.w3.org/2000/svg" xmlns:xlink="http://www.w3.org/1999/xlink" width="1440" height="1440" viewBox="0 0 1440 1440">
  <defs>
    <clipPath id="clip-path">
      <rect id="Rectangle_1674" data-name="Rectangle 1674" width="1440" height="1440" fill="#fff"/>
    </clipPath>
    <radialGradient id="radial-gradient" cx="1.022" cy="0.151" r="1.218" gradientTransform="matrix(-0.601, 0, 0, 1, -0.035, 0)" gradientUnits="objectBoundingBox">
      <stop offset="0" stop-color="#fff"/>
      <stop offset="0.03" stop-color="#f52e9f"/>
      <stop offset="0.205" stop-color="#3cc"/>
      <stop offset="0.374" stop-color="#3cc"/>
      <stop offset="0.539" stop-color="#3cc"/>
      <stop offset="0.704" stop-color="#685bd0"/>
      <stop offset="0.859" stop-color="#5b5fd5"/>
      <stop offset="1" stop-color="#5761d7"/>
    </radialGradient>
    <radialGradient id="radial-gradient-2" cx="1.022" cy="0.151" r="1.218" gradientTransform="matrix(-0.601, 0, 0, 1, -0.035, 0)" gradientUnits="objectBoundingBox">
      <stop offset="0" stop-color="#fff"/>
      <stop offset="0" stop-color="#f52e9f"/>
      <stop offset="0.134" stop-color="#3cc"/>
      <stop offset="0.374" stop-color="#3cc"/>
      <stop offset="0.519" stop-color="#685bd0"/>
      <stop offset="0.724" stop-color="#5b5fd5"/>
      <stop offset="1" stop-color="#5761d7"/>
    </radialGradient>
  </defs>
  <g id="Mask_Group_15" data-name="Mask Group 15" clip-path="url(#clip-path)">
    <g id="Group_14816" data-name="Group 14816" transform="translate(572.691 -504.32)" opacity="0.9">
      <path id="Path_19048" data-name="Path 19048" d="M1503.74,40.578a12.747,12.747,0,0,0-11.576,0c-2.4,1.393-3,3.435-1.789,5.151l-179.214,103.9V280.787L1267.5,306.1l-.005,142.661L1117.94,535.467l-23.3-13.512,115.329-66.86v-78.2l-.459-.267L1078.39,300.61V274.087l74.152-42.99a12.885,12.885,0,0,0,10.566-.479c3.2-1.853,3.2-4.859,0-6.712a12.749,12.749,0,0,0-11.574,0c-2.884,1.672-3.142,4.271-.828,6.127l-74.15,42.992V301.67l.456.267,131.122,76.019v76.081l-87.139,50.519V471.975l39.947-23.159a12.885,12.885,0,0,0,10.566-.479c3.2-1.853,3.2-4.859,0-6.712a12.747,12.747,0,0,0-11.577,0c-2.882,1.672-3.14,4.271-.822,6.127l-39.946,23.162v34.7l-26.354,15.28-31.165-18.068V446.087L1120.426,412v-39.22l-.459-.267L996.225,300.775c2.315-1.856,2.057-4.455-.825-6.127a12.746,12.746,0,0,0-11.576,0c-3.2,1.853-3.2,4.859,0,6.712a12.9,12.9,0,0,0,10.566.479l124.2,72.006v37.1l-56.949,33.016V404.852l-.459-.267L985.476,360.7c2.317-1.856,2.06-4.457-.822-6.127a12.747,12.747,0,0,0-11.577,0c-3.2,1.853-3.2,4.859,0,6.712a12.9,12.9,0,0,0,10.566.476l76.168,44.16v95.851l-21.89-12.691-36.065,20.91-32.667-18.937v-46.02l-.456-.269L882.372,394.7V351.316a11.314,11.314,0,0,0,4.872-1.338c3.2-1.853,3.2-4.859,0-6.712a12.746,12.746,0,0,0-11.576,0c-3.2,1.853-3.2,4.859,0,6.712a11.3,11.3,0,0,0,4.872,1.338V395.76l.459.267L967.357,446.1V490L826.806,408.5V322.125l76.228-44.193h69.951l.211-.122,120.033-69.589a12.9,12.9,0,0,0,10.566-.479c3.2-1.853,3.2-4.859,0-6.712a12.747,12.747,0,0,0-11.577,0c-2.882,1.672-3.14,4.271-.825,6.127l-118.9,68.934H906.208l220.509-127.842a12.9,12.9,0,0,0,10.566-.479c3.2-1.853,3.2-4.859,0-6.712a12.741,12.741,0,0,0-11.574,0c-2.885,1.672-3.142,4.271-.825,6.127L824.976,321.061v88.5l.456.267,174.59,101.222L964.88,531.424,666.8,358.6V255.48l-.459-.267L564.979,196.449c2.315-1.856,2.057-4.455-.825-6.127a12.747,12.747,0,0,0-11.576,0c-3.2,1.853-3.2,4.859,0,6.712a12.9,12.9,0,0,0,10.566.479l101.829,59.035V359.665l.456.269L963.05,532.485l-33.456,19.4L634.817,380.974h-175.8l-109.872-63.7V219.383a10.247,10.247,0,0,0,3.178-1.123c3.2-1.851,3.2-4.856,0-6.712a12.762,12.762,0,0,0-11.576,0c-3.2,1.856-3.2,4.861,0,6.712a12.117,12.117,0,0,0,6.565,1.349v98.727l.459.267,110.753,64.212H634.318l248.847,144.27H833.114l-84.927-49.241H682.764l-.211.124-90.73,52.6a12.9,12.9,0,0,0-10.566.479c-3.2,1.853-3.2,4.859,0,6.709a12.746,12.746,0,0,0,11.576,0c2.882-1.669,3.14-4.271.822-6.127l89.6-51.946h64.437l84.93,49.241h53.714l41.426,24.016-89.294,51.77-25.393-14.721V551.352l-64.5-37.4c2.317-1.856,2.06-4.455-.822-6.127a12.746,12.746,0,0,0-11.576,0c-3.2,1.853-3.2,4.859,0,6.712a12.891,12.891,0,0,0,10.569.476l64.5,37.4v36.513L742.46,549.045H709.884l-.211.124L670.84,571.685a12.89,12.89,0,0,0-10.569.479c-3.2,1.851-3.2,4.856,0,6.709a12.747,12.747,0,0,0,11.576,0c2.882-1.672,3.14-4.271.822-6.127l37.706-21.86h31.59l94.671,54.886-17.2,9.973,54.884,31.82-25.7,14.9H809.76l-27.811-16.124c2.217-1.851,1.918-4.406-.925-6.055a12.747,12.747,0,0,0-11.577,0c-3.2,1.853-3.2,4.859,0,6.712a12.874,12.874,0,0,0,10.692.419L809.267,664.3h36.186l-65.54,38L625.707,612.9H514.747l-.211.124-62.47,36.218a12.891,12.891,0,0,0-10.569.479c-3.2,1.853-3.2,4.856,0,6.709a12.741,12.741,0,0,0,11.574,0c2.884-1.669,3.142-4.271.825-6.124l61.347-35.566H625.215L744.15,683.694H693.243L643.48,654.845c2.317-1.853,2.06-4.455-.822-6.127a12.747,12.747,0,0,0-11.576,0c-3.2,1.853-3.2,4.859,0,6.712a12.885,12.885,0,0,0,10.566.476l51.1,29.628h54.575l30.757,17.832-78.29,45.386H449.59L255.2,636.061c2.317-1.856,2.06-4.455-.822-6.127a12.747,12.747,0,0,0-11.576,0c-3.2,1.853-3.2,4.859,0,6.712,2.882,1.672,10.569.476,10.569.476L449.094,750.6H696.617l-31.059,18H480.348l-.211.124L388.8,821.68a12.9,12.9,0,0,0-10.568.476c-3.2,1.853-3.2,4.858,0,6.712a12.747,12.747,0,0,0,11.576,0c2.882-1.672,3.14-4.271.822-6.127l90.212-52.3H666.054l.211-.124L876.156,648.628l23.3,13.512L678.787,790.075H517.405l-.211.124L322.261,903.215H52.2L0,872.953v2.125l51.711,29.98H322.753l.211-.124,122.33-70.922v41.977L364.661,922.74a12.892,12.892,0,0,0-10.568.476c-3.2,1.853-3.2,4.859,0,6.712a12.746,12.746,0,0,0,11.576,0c2.882-1.672,3.14-4.271.825-6.127l80.633-46.75V833.192h-.42L517.9,791.915H679.282l.211-.124L901.291,663.2l26.468,15.347L497.389,928.059v45.084h1.83V929.121L929.592,679.609,962.3,698.57l-222,128.71v23.012L700.941,873.11v52.924l-76.331,44.25a12.9,12.9,0,0,0-10.566.479,4.748,4.748,0,0,0-2.212,2.382H627.79a4.174,4.174,0,0,0-1.351-1.8L702.77,927.1V874.172l37.53-21.758v84.749L762.444,950l-39.911,23.138H726.2l38.08-22.077,38.08,22.077h3.663l-63.9-37.038V828.342l222-128.71L993.9,716.893,836.8,807.977a12.9,12.9,0,0,0-10.568.476c-3.2,1.853-3.2,4.858,0,6.712a12.746,12.746,0,0,0,11.576,0c2.882-1.672,3.14-4.271.825-6.127l157.1-91.083,28.741,16.665L836.55,843.571H785.473a4.709,4.709,0,0,0-2.24-2.433,12.745,12.745,0,0,0-11.576,0c-3.2,1.853-3.2,4.858,0,6.709a12.746,12.746,0,0,0,11.576,0,4.721,4.721,0,0,0,2.242-2.436h51.564l.214-.124L1026.306,735.68l11.6,6.728,8.932-5.177,45.027,26.1v36.329l-37.2,21.567v-.1h-58.37l-.214.124L932.03,858.4a12.891,12.891,0,0,0-10.568.479c-3.2,1.851-3.2,4.856,0,6.709a12.746,12.746,0,0,0,11.576,0c2.882-1.672,3.14-4.271.822-6.127l62.924-36.482h54.879L942.3,886.379a12.852,12.852,0,0,0-10.8.37c-3.2,1.854-3.2,4.856,0,6.709a12.746,12.746,0,0,0,11.576,0c2.812-1.631,3.145-4.149,1.008-5.995L1080.5,808.381v17.483l-81.154,47.051v33.221l-66.077,38.309a12.885,12.885,0,0,0-10.566.476c-3.2,1.853-3.2,4.859,0,6.712a12.741,12.741,0,0,0,11.574,0c2.884-1.672,3.142-4.274.825-6.127l66.074-38.309V873.975l81.156-47.051v-19.6l11.368-6.593V762.275l-45.027-26.1,29.589-17.157,92.653,53.716V833.8L1108,870.269a12.863,12.863,0,0,0-10.8.373c-3.2,1.851-3.2,4.856,0,6.71a12.747,12.747,0,0,0,11.576,0c2.812-1.631,3.145-4.149,1.008-6l61.122-35.436v49.331l-48.288,27.994v59.9h1.833V914.305l46.455-26.933v85.769h1.833l.005-201.474L1080.1,717.952l33.227-19.264L1234.42,768.9l-.005,167.2,58.21,33.751v3.293h1.833v-4.356l-58.209-33.749.005-167.205-121.095-70.2,24.625-14.278L1303.21,778.1V920.764l90.351,52.381h3.665L1305.04,919.7V777.038l-163.428-94.749,39.913-23.141,271.908,157.644v70.987l93.186,54.029v-2.125l-91.354-52.965V815.729L1302.32,727.061h120.956l123.34,71.507v-2.123l-122.85-71.224H1299.15l-115.792-67.132,46.388-26.894,99.533,57.708H1489.1l57.524,33.352V720.13l-12.61-7.31h12.61v-1.838h-15.783l-41.249-23.915H1329.77l-27.852-16.147h67.943l.212-.124,34.082-19.76h141.993l.472.274V649.2H1407.332l38.366-22.246a12.892,12.892,0,0,0,10.569-.479c3.2-1.853,3.2-4.856,0-6.709a12.747,12.747,0,0,0-11.577,0c-2.884,1.67-3.14,4.271-.822,6.127l-74.5,43.189h-70.626l-67.167-38.941L1256.4,615.75l-15.972-9.259h46.43l60.686,35.183c-2.317,1.856-2.059,4.457.825,6.127a12.741,12.741,0,0,0,11.574,0c3.2-1.853,3.2-4.859,0-6.709a12.885,12.885,0,0,0-10.566-.479l-62.03-35.962H1237.25l-33.966-19.693,20.887-12.109h37.054l32.572-18.886h24.31l54.9,31.828c-2.464,1.859-2.261,4.525.678,6.228a12.746,12.746,0,0,0,11.576,0c3.2-1.853,3.2-4.859,0-6.709a12.93,12.93,0,0,0-10.391-.564l-56.27-32.632h-25.292L1260.73,571h-33.386l66.778-38.716h36.057l75.158,43.574h141.278v-1.841H1405.827l-75.158-43.575H1293.63l-.212.122-91.967,53.323L1177.32,569.9l103.922-60.252h73.3l60.47,35.058h131.6v-1.84H1415.5l-57.3-33.218h188.411V507.8H1280.748l-.214.122-105.052,60.907-27.416-15.9,144.918-84.017h253.627v-1.84H1361.788l184.823-107.155V357.8L1358.13,467.082h-63.808l137.4-79.66V369.864l65.744-38.115a12.885,12.885,0,0,0,10.566-.479c3.2-1.853,3.2-4.856,0-6.712a12.749,12.749,0,0,0-11.574,0c-2.884,1.67-3.142,4.271-.825,6.124l-35.8,20.754V303.324l86.778-50.312v-2.125L1458,302.263V352.5l-28.112,16.3v17.56l-138.525,80.313.462.8-145.586,84.4-26.47-15.347,149.558-86.706.005-142.661,277.283-160.758V144.28L1312.99,279.728V150.695L1491.8,47.031c.126.085.224.179.364.259a12.747,12.747,0,0,0,11.576,0C1506.94,45.437,1506.94,42.431,1503.74,40.578ZM1252.73,615.741,1037.91,740.286,823.1,615.746,1037.92,491.2Z" transform="translate(0 -39.188)" fill="url(#radial-gradient)"/>
    </g>
    <g id="Group_14817" data-name="Group 14817" transform="translate(-231.595 -152.502) rotate(30)" opacity="0.99">
      <path id="Path_19048-2" data-name="Path 19048" d="M1791.68,624.939c-3.066-1.778-6.828-.929-9.89.837-2.3,1.327-2.865,3.279-1.706,4.923l-171.556,99.05.224,125.423L1566.96,879.3l.241,136.423-143.164,82.655-22.356-12.961,110.4-63.737-.135-74.784-.44-.256L1385.72,873.72l-.046-25.362,70.984-40.981a12.365,12.365,0,0,0,10.124-.44c3.06-1.767,3.055-4.641-.012-6.418a12.239,12.239,0,0,0-11.091-.02c-2.761,1.594-3,4.079-.783,5.858l-70.981,40.984.049,27.392.438.256,125.782,72.922.131,72.754-83.415,48.159-.054-31.156,38.24-22.077a12.365,12.365,0,0,0,10.124-.44c3.06-1.767,3.054-4.641-.012-6.418a12.238,12.238,0,0,0-11.094-.02c-2.759,1.594-3,4.079-.777,5.858l-38.24,22.08.058,33.186-25.228,14.566-29.9-17.332-.1-54.258,56.27-32.49-.068-37.508-.44-.256-118.7-68.82c2.215-1.771,1.964-4.256-.8-5.86a12.237,12.237,0,0,0-11.093-.02c-3.06,1.767-3.055,4.641.012,6.418a12.386,12.386,0,0,0,10.126.476l119.145,69.073.064,35.478-54.516,31.474-.068-37.4-.44-.256-72.626-42.1c2.218-1.771,1.966-4.259-.8-5.86a12.238,12.238,0,0,0-11.093-.02c-3.06,1.767-3.055,4.641.012,6.418a12.387,12.387,0,0,0,10.126.474l73.066,42.361.163,91.66-21-12.174-34.524,19.933-31.337-18.166-.079-44.008-.438-.258-82.843-48.027-.072-41.486a10.83,10.83,0,0,0,4.666-1.271c3.06-1.767,3.054-4.641-.012-6.418a12.237,12.237,0,0,0-11.093-.02c-3.06,1.767-3.055,4.641.012,6.418a10.88,10.88,0,0,0,4.671,1.288l.074,42.5.44.256,82.841,48.029.076,41.976-134.824-78.166-.147-82.6,72.97-42.128,67.032.119.2-.116,114.9-66.338a12.384,12.384,0,0,0,10.124-.44c3.06-1.767,3.055-4.641-.012-6.418a12.238,12.238,0,0,0-11.094-.02c-2.758,1.594-3,4.079-.78,5.858l-113.821,65.713-63.519-.112,211.086-121.87a12.373,12.373,0,0,0,10.124-.44c3.06-1.767,3.055-4.641-.011-6.418a12.232,12.232,0,0,0-11.091-.02c-2.761,1.594-3,4.079-.78,5.858L1142.92,892.837l.153,84.63.438.256,167.479,97.1-33.64,19.422L991.417,928.465l-.175-98.611-.44-.256-97.239-56.375c2.215-1.771,1.963-4.256-.8-5.86a12.237,12.237,0,0,0-11.093-.02c-3.06,1.767-3.055,4.641.012,6.418a12.386,12.386,0,0,0,10.126.476l97.682,56.631.176,98.608.438.258,285.5,165.522-32.026,18.49L960.8,949.8l-168.46-.3-105.4-61.1-.167-93.611a9.8,9.8,0,0,0,3.044-1.069c3.06-1.764,3.055-4.638-.012-6.418a12.252,12.252,0,0,0-11.093-.02c-3.06,1.769-3.055,4.643.012,6.418a11.657,11.657,0,0,0,6.294,1.3l.168,94.41.44.256,106.242,61.6,168.458.3,238.708,138.394-47.963-.084-81.468-47.235-62.692-.113-.2.118-86.853,50.143a12.376,12.376,0,0,0-10.124.44c-3.06,1.767-3.055,4.641.012,6.416a12.236,12.236,0,0,0,11.093.02c2.759-1.591,3-4.079.777-5.857l85.772-49.519,61.748.112,81.471,47.235,51.473.091,39.739,23.037-85.478,49.351-24.359-14.121-.067-36.949-61.875-35.872c2.218-1.771,1.966-4.256-.8-5.86a12.238,12.238,0,0,0-11.093-.02c-3.06,1.767-3.055,4.641.012,6.418a12.382,12.382,0,0,0,10.128.474l61.872,35.872.063,34.917-65.984-38.256-31.215-.057-.2.118-37.174,21.463a12.37,12.37,0,0,0-10.127.44c-3.06,1.764-3.055,4.638.012,6.416a12.238,12.238,0,0,0,11.093.02c2.759-1.594,3-4.079.777-5.858l36.1-20.839,30.271.055,90.815,52.65-16.463,9.507,52.649,30.524-24.6,14.2-37.245-.068-26.678-15.467c2.121-1.766,1.83-4.21-.9-5.791a12.239,12.239,0,0,0-11.094-.02c-3.06,1.767-3.054,4.641.012,6.419a12.366,12.366,0,0,0,10.247.42l27.942,16.2,34.676.063-62.74,36.224-147.925-85.762-106.329-.19-.2.119-59.8,34.526a12.371,12.371,0,0,0-10.127.439c-3.06,1.767-3.055,4.638.012,6.416a12.233,12.233,0,0,0,11.091.02c2.761-1.592,3-4.079.78-5.855l58.725-33.9,105.383.188,114.091,66.146-48.783-.088-47.736-27.673c2.218-1.768,1.966-4.256-.8-5.86a12.238,12.238,0,0,0-11.093-.02c-3.06,1.767-3.055,4.641.012,6.418a12.375,12.375,0,0,0,10.126.474l49.019,28.421,52.3.094,29.5,17.106L1023.7,1301.61l-239.763-.432-186.465-108.1c2.217-1.771,1.966-4.256-.8-5.86a12.238,12.238,0,0,0-11.093-.02c-3.06,1.767-3.055,4.641.012,6.418a12.373,12.373,0,0,0,10.128.474l187.748,108.851,237.194.427-29.731,17.164-177.481-.319-.2.118-87.435,50.481a12.38,12.38,0,0,0-10.127.437c-3.06,1.767-3.055,4.641.012,6.418a12.237,12.237,0,0,0,11.093.02c2.759-1.594,3-4.079.777-5.858l86.357-49.857,177.484.319.2-.118,200.923-116,22.353,12.961-211.242,121.958L849,1340.81l-.2.118L662.2,1448.664l-258.8-.464-50.077-29.032v2.032l49.605,28.759,259.732.468.2-.118,117.1-67.608.07,40.142-77.187,44.566a12.371,12.371,0,0,0-10.127.437c-3.06,1.767-3.055,4.641.012,6.418a12.238,12.238,0,0,0,11.094.02c2.759-1.594,3-4.078.78-5.858l77.187-44.566-.073-41.941h-.4l68.149-39.345,154.65.28.2-.118,212.32-122.583,25.39,14.722L830.056,1472.72l.078,43.112h1.754l-.074-42.1,411.979-237.854,31.374,18.188-212.515,122.7.04,22.005-37.677,21.752.091,50.61-73.069,42.183a12.377,12.377,0,0,0-10.124.439,4.521,4.521,0,0,0-2.115,2.274l15.3.028a4.01,4.01,0,0,0-1.3-1.722l73.069-42.183-.091-50.607L1062.7,1400.8l.144,81.043,21.248,12.318-38.2,22.058,3.51.006,36.453-21.046,36.529,21.178,3.51.006-61.291-35.535-.184-103.046,212.515-122.7,28.56,16.559L1155.1,1358.472a12.381,12.381,0,0,0-10.127.437c-3.06,1.767-3.055,4.64.011,6.418a12.236,12.236,0,0,0,11.093.02c2.759-1.594,3-4.079.78-5.858l150.392-86.828,27.571,15.986-179.9,103.862-48.945-.088a4.53,4.53,0,0,0-2.151-2.331,12.237,12.237,0,0,0-11.093-.02c-3.06,1.767-3.055,4.641.012,6.416a12.237,12.237,0,0,0,11.093.02,4.5,4.5,0,0,0,2.145-2.325l49.413.089.2-.118,180.975-104.486,11.132,6.453,8.55-4.935,43.193,25.042.06,34.74-35.612,20.56v-.094l-55.936-.1-.2.118-61.314,35.4a12.372,12.372,0,0,0-10.127.44c-3.06,1.764-3.055,4.638.012,6.416a12.236,12.236,0,0,0,11.093.02c2.759-1.594,3-4.079.777-5.857l60.235-34.778,52.589.1-104.688,60.443a12.334,12.334,0,0,0-10.344.335c-3.06,1.767-3.055,4.638.012,6.416a12.236,12.236,0,0,0,11.093.02c2.692-1.554,3.006-3.962.956-5.731l130.58-75.389.028,16.718-77.686,44.853.057,31.768-63.253,36.52a12.366,12.366,0,0,0-10.124.437c-3.06,1.767-3.057,4.641.012,6.419a12.233,12.233,0,0,0,11.091.02c2.761-1.594,3-4.081.78-5.858l63.251-36.52-.057-31.768,77.688-44.853-.031-18.748,10.882-6.285-.066-36.77L1358,1290.18l28.325-16.355,88.879,51.528.1,58.4-60.223,34.768a12.345,12.345,0,0,0-10.344.338c-3.06,1.764-3.055,4.638.012,6.416a12.239,12.239,0,0,0,11.093.02c2.692-1.555,3.006-3.963.955-5.731l58.51-33.781.085,47.174-46.224,26.687.1,57.278h1.756l-.1-56.263,44.47-25.675.146,82.019h1.756l-.343-192.664-88.879-51.528,31.807-18.364,116.163,67.347.284,159.892,55.839,32.376.006,3.149h1.756l-.008-4.166-55.839-32.374-.284-159.894-116.163-67.345,23.573-13.611,156.772,90.889.244,136.426,86.671,50.247,3.512.006-88.429-51.267-.244-136.423-156.772-90.889,38.207-22.06L1746,1367.972l.12,67.883,89.391,51.828v-2.032l-87.633-50.808-.12-67.885L1601.045,1281.9l115.908.21,118.317,68.594v-2.03l-117.847-68.323L1598,1280.137l-111.077-64.4,44.406-25.638,95.479,55.357,153.148.275,55.181,31.994v-2.032l-12.1-7.012,12.084.019v-1.758l-15.125-.027-39.569-22.941-153.148-.277-26.718-15.489,65.108.118.2-.118,32.626-18.837,136.067.244.453.263v-2.02l-133.476-.239,36.727-21.206a12.371,12.371,0,0,0,10.127-.44c3.06-1.767,3.054-4.638-.011-6.416a12.238,12.238,0,0,0-11.093-.02c-2.761,1.592-3,4.079-.777,5.858l-71.315,41.171-67.679-.123-64.432-37.355,23.76-13.717-15.321-8.882,44.492.081,58.215,33.75c-2.217,1.77-1.966,4.259.8,5.86a12.233,12.233,0,0,0,11.091.02c3.06-1.767,3.054-4.641-.012-6.416a12.376,12.376,0,0,0-10.126-.476l-59.5-34.5-48-.087-32.583-18.891,19.994-11.53,35.508.064,31.18-18,23.3.042,52.661,30.531c-2.358,1.773-2.158,4.323.66,5.957a12.236,12.236,0,0,0,11.093.02c3.06-1.767,3.055-4.64-.011-6.416a12.422,12.422,0,0,0-9.958-.557l-53.977-31.294-24.237-.044-31.182,18-31.993-.058,63.924-36.907,34.552.063,72.1,41.8,135.383.245v-1.76l-134.913-.241-72.1-41.8-35.493-.064-.2.116-88.037,50.832L1481,1131.4l99.481-57.437,70.241.127,58.007,33.63,126.113.228v-1.76l-125.643-.227-54.964-31.865,138.684-.136v-1.76h-212.9l-.2.116-100.563,58.062-26.3-15.248,138.726-80.092,243.043.437v-1.76l-177.111-.318L1834.54,931.248v-2.03L1654.08,1033.4l-61.146-.111,131.53-75.939-.03-16.79,62.935-36.334a12.365,12.365,0,0,0,10.124-.44c3.06-1.767,3.055-4.638-.012-6.418a12.24,12.24,0,0,0-11.091-.018c-2.761,1.592-3,4.079-.78,5.855l-34.269,19.785-.08-46.008,83.07-47.962v-2.032l-84.825,48.976.084,48.04-26.911,15.538.03,16.79L1590.1,1032.89l.443.766-139.365,80.462L1425.79,1099.4l143.167-82.655-.241-136.423L1834.15,727.071v-2.032l-223.641,129.12-.221-123.391,171.167-98.82c.121.082.215.171.349.248,3.066,1.778,6.83.929,9.89-.837S1794.74,626.717,1791.68,624.939Zm-238.342,550.434L1347.7,1294.1l-206.061-119.466,205.638-118.729Z" fill="url(#radial-gradient-2)"/>
      <path id="Path_23577" data-name="Path 23577" d="M6.406,2.5a4.538,4.538,0,1,1-4.52,4.53A4.538,4.538,0,0,1,6.406,2.5Z" transform="translate(1793.338 1103.793)" fill="#2e95a2"/>
      <path id="Path_23578" data-name="Path 23578" d="M6.406,2.5a4.538,4.538,0,1,1-4.52,4.53A4.538,4.538,0,0,1,6.406,2.5Z" transform="translate(1793.216 1036.628)" fill="#2e95a2"/>
    </g>
  </g>
</svg>
