<svg xmlns="http://www.w3.org/2000/svg" xmlns:xlink="http://www.w3.org/1999/xlink" width="512" height="327" viewBox="0 0 512 327">
  <defs>
    <clipPath id="clip-path">
      <rect id="Rectangle_1674" data-name="Rectangle 1674" width="512" height="327" fill="#fff"/>
    </clipPath>
    <radialGradient id="radial-gradient" cx="1.022" cy="0.151" r="1.218" gradientTransform="matrix(-0.601, 0, 0, 1, -0.035, 0)" gradientUnits="objectBoundingBox">
      <stop offset="0" stop-color="#fff"/>
      <stop offset="0.03" stop-color="#f52e9f"/>
      <stop offset="0.205" stop-color="#3cc"/>
      <stop offset="0.374" stop-color="#3cc"/>
      <stop offset="0.539" stop-color="#3cc"/>
      <stop offset="0.704" stop-color="#685bd0"/>
      <stop offset="0.859" stop-color="#5b5fd5"/>
      <stop offset="1" stop-color="#5761d7"/>
    </radialGradient>
    <radialGradient id="radial-gradient-2" cx="1.022" cy="0.151" r="1.218" gradientTransform="matrix(-0.601, 0, 0, 1, -0.035, 0)" gradientUnits="objectBoundingBox">
      <stop offset="0" stop-color="#fff"/>
      <stop offset="0" stop-color="#f52e9f"/>
      <stop offset="0.134" stop-color="#3cc"/>
      <stop offset="0.374" stop-color="#3cc"/>
      <stop offset="0.519" stop-color="#685bd0"/>
      <stop offset="0.724" stop-color="#5b5fd5"/>
      <stop offset="1" stop-color="#5761d7"/>
    </radialGradient>
  </defs>
  <g id="Mask_Group_15" data-name="Mask Group 15" clip-path="url(#clip-path)">
    <g id="Group_14816" data-name="Group 14816" transform="translate(203.623 -114.523)" opacity="0.9">
      <path id="Path_19048" data-name="Path 19048" d="M534.663,39.5a6.866,6.866,0,0,0-4.116,0c-.853.316-1.067.78-.636,1.169l-63.72,23.594V94.051L450.667,99.8l0,32.4L397.49,151.885l-8.284-3.068,41.006-15.183V115.875l-.163-.061-46.62-17.262V92.53l26.365-9.762a6.976,6.976,0,0,0,3.757-.109c1.138-.421,1.138-1.1,0-1.524a6.863,6.863,0,0,0-4.115,0c-1.025.379-1.117.97-.294,1.391l-26.364,9.763v6.5l.162.061,46.621,17.262v17.277l-30.983,11.472v-7.4l14.2-5.259a6.971,6.971,0,0,0,3.757-.108c1.138-.421,1.138-1.1,0-1.524a6.867,6.867,0,0,0-4.116,0c-1.025.38-1.116.97-.292,1.391l-14.2,5.26v7.88l-9.37,3.47-11.081-4.1V131.588l20.9-7.74v-8.906l-.163-.061-44-16.292c.823-.421.731-1.012-.293-1.391a6.866,6.866,0,0,0-4.116,0c-1.138.421-1.138,1.1,0,1.524a6.981,6.981,0,0,0,3.757.108l44.16,16.352v8.425l-20.249,7.5v-8.881l-.163-.061L350.391,112.2c.824-.421.732-1.012-.292-1.391a6.867,6.867,0,0,0-4.116,0c-1.138.421-1.138,1.1,0,1.524a6.985,6.985,0,0,0,3.757.108l27.082,10.028v21.766l-7.783-2.882L356.215,146.1,344.6,141.8v-10.45l-.162-.062-30.706-11.369v-9.852a5.86,5.86,0,0,0,1.732-.3c1.138-.42,1.138-1.1,0-1.524a6.866,6.866,0,0,0-4.116,0c-1.138.42-1.138,1.1,0,1.524a5.845,5.845,0,0,0,1.732.3V120.16l.163.061,30.705,11.37v9.969l-49.974-18.507V103.438l27.1-10.035H345.95l.075-.028,42.678-15.8a6.985,6.985,0,0,0,3.757-.108c1.138-.421,1.138-1.1,0-1.524a6.867,6.867,0,0,0-4.116,0c-1.025.38-1.116.97-.293,1.392L345.775,92.985H322.207l78.4-29.031a6.985,6.985,0,0,0,3.757-.109c1.138-.421,1.138-1.1,0-1.524a6.864,6.864,0,0,0-4.115,0c-1.026.38-1.117.97-.293,1.392L293.325,103.2v20.1l.162.061,62.076,22.985-12.495,4.626L237.084,111.721V88.3l-.163-.061L200.881,74.9c.823-.421.731-1.012-.293-1.392a6.874,6.874,0,0,0-4.116,0c-1.138.421-1.138,1.1,0,1.524a6.981,6.981,0,0,0,3.757.108l36.206,13.406v23.416l.162.061,105.821,39.184-11.9,4.406L225.713,116.8H163.206L124.14,102.337V80.107a5.108,5.108,0,0,0,1.13-.255c1.138-.42,1.138-1.1,0-1.524a6.881,6.881,0,0,0-4.116,0c-1.138.421-1.138,1.1,0,1.524a6.421,6.421,0,0,0,2.334.307v22.419l.163.061,39.379,14.582h62.5l88.479,32.761h-17.8l-30.2-11.182H242.761l-.075.028-32.26,11.945a6.985,6.985,0,0,0-3.757.108c-1.138.421-1.138,1.1,0,1.523a6.858,6.858,0,0,0,4.116,0c1.025-.379,1.116-.97.292-1.391l31.858-11.8h22.911l30.2,11.182h19.1l14.729,5.454-31.749,11.756-9.029-3.342v-8.774L266.16,147c.824-.421.732-1.012-.292-1.392a6.874,6.874,0,0,0-4.116,0c-1.138.421-1.138,1.1,0,1.524a6.985,6.985,0,0,0,3.758.108l22.933,8.493v8.292l-24.457-9.056H252.4l-.075.028-13.807,5.113a6.975,6.975,0,0,0-3.758.109c-1.138.42-1.138,1.1,0,1.523a6.866,6.866,0,0,0,4.116,0c1.025-.38,1.116-.97.292-1.392l13.407-4.964H263.81l33.661,12.463-6.116,2.265,19.514,7.226-9.138,3.383H287.915l-9.888-3.662c.788-.42.682-1-.329-1.375a6.867,6.867,0,0,0-4.116,0c-1.138.421-1.138,1.1,0,1.524a6.961,6.961,0,0,0,3.8.1l10.357,3.834h12.866l-23.3,8.629-54.829-20.3H183.021l-.075.028-22.212,8.225a6.975,6.975,0,0,0-3.758.108c-1.138.421-1.138,1.1,0,1.524a6.864,6.864,0,0,0,4.115,0c1.025-.379,1.117-.97.293-1.391l21.812-8.077h39.1l42.288,15.658h-18.1l-17.694-6.551c.824-.421.732-1.012-.292-1.391a6.866,6.866,0,0,0-4.116,0c-1.138.42-1.138,1.1,0,1.524a6.971,6.971,0,0,0,3.757.108l18.169,6.728h19.4l10.936,4.049-27.836,10.306h-88.96l-69.116-25.59c.824-.421.732-1.012-.292-1.392a6.874,6.874,0,0,0-4.116,0c-1.138.421-1.138,1.1,0,1.524a12.951,12.951,0,0,0,3.758.108l69.59,25.769h88.008l-11.043,4.087H170.79l-.075.028L138.24,216.879a6.974,6.974,0,0,0-3.758.108c-1.138.42-1.138,1.1,0,1.524a6.874,6.874,0,0,0,4.116,0c1.025-.38,1.116-.97.292-1.392l32.075-11.876h65.853l.075-.028,74.628-27.634,8.284,3.069L241.346,209.7h-57.38l-.075.028-69.31,25.664H18.561L0,228.522V229l18.386,6.808h96.37l.075-.028,43.5-16.105v9.533l-28.67,10.616a6.979,6.979,0,0,0-3.758.108c-1.138.421-1.138,1.1,0,1.524a6.866,6.866,0,0,0,4.116,0c1.025-.38,1.116-.97.293-1.391l28.67-10.617v-9.959h-.149l25.313-9.374h57.38l.075-.028,78.862-29.2,9.411,3.485-153.02,56.66v10.238h.651v-10l153.022-56.66,11.629,4.306L263.218,218.15v5.226l-13.994,5.182v12.018l-27.14,10.048a6.976,6.976,0,0,0-3.757.109,1.475,1.475,0,0,0-.786.541h5.674a1.138,1.138,0,0,0-.48-.409l27.14-10.048V228.8l13.344-4.941V243.1l7.873,2.916L256.9,251.272h1.3l13.54-5.013,13.54,5.013h1.3l-22.719-8.411v-24.47L342.8,189.164l10.586,3.92-55.858,20.684a6.979,6.979,0,0,0-3.758.108c-1.138.42-1.138,1.1,0,1.524a6.866,6.866,0,0,0,4.116,0c1.025-.379,1.117-.97.293-1.391l55.86-20.684,10.219,3.784L297.44,221.85H279.279a1.452,1.452,0,0,0-.8-.552,6.858,6.858,0,0,0-4.116,0c-1.138.421-1.138,1.1,0,1.523a6.866,6.866,0,0,0,4.116,0,1.458,1.458,0,0,0,.8-.554h18.334l.076-.028,67.219-24.89,4.124,1.528,3.176-1.176,16.01,5.928v8.25l-13.227,4.9v-.022H354.238l-.076.028-22.774,8.435a6.979,6.979,0,0,0-3.758.109c-1.138.42-1.138,1.1,0,1.524a6.874,6.874,0,0,0,4.116,0c1.025-.38,1.116-.97.292-1.392l22.373-8.284h19.513l-38.885,14.4a6.956,6.956,0,0,0-3.84.084c-1.138.421-1.138,1.1,0,1.523a6.866,6.866,0,0,0,4.116,0c1-.37,1.118-.942.358-1.361l48.5-17.958v3.97l-28.855,10.685v7.544l-23.494,8.7a6.971,6.971,0,0,0-3.757.108c-1.138.421-1.138,1.1,0,1.524a6.86,6.86,0,0,0,4.115,0c1.025-.379,1.117-.97.293-1.391l23.493-8.7v-7.544l28.855-10.685v-4.452l4.042-1.5v-8.731l-16.01-5.927,10.521-3.9,32.943,12.2v13.868l-22.37,8.281a6.957,6.957,0,0,0-3.84.085c-1.138.42-1.138,1.1,0,1.523a6.866,6.866,0,0,0,4.116,0c1-.371,1.118-.942.358-1.362l21.732-8.047v11.2l-17.169,6.357v13.6h.652V237.913l16.517-6.116v19.477h.652l0-45.751-32.94-12.2,11.814-4.375L438.9,204.894l0,37.968,20.7,7.664v.748h.652v-.989l-20.7-7.664,0-37.97L396.5,188.71l8.756-3.242,58.107,21.515v32.4l32.125,11.895h1.3l-32.777-12.136v-32.4l-58.108-21.516,14.191-5.255,96.678,35.8v16.12l33.133,12.269v-.483l-32.481-12.027v-16.12l-54.38-20.135h43.007l43.854,16.238v-.482l-43.68-16.174H461.92L420.75,179.73l16.494-6.107,35.39,13.1h56.824l20.453,7.574v-.482l-4.484-1.66h4.484v-.417H544.3l-14.666-5.431H472.807l-9.9-3.667h24.158l.075-.028,12.118-4.487h50.486l.168.063v-.479H500.385l13.641-5.052a6.975,6.975,0,0,0,3.758-.108c1.138-.421,1.138-1.1,0-1.523a6.867,6.867,0,0,0-4.116,0c-1.025.379-1.117.97-.292,1.391l-26.489,9.808H461.775l-23.882-8.843,8.825-3.268-5.679-2.1h16.508L479.125,176c-.824.421-.732,1.012.293,1.391a6.863,6.863,0,0,0,4.115,0c1.138-.421,1.138-1.1,0-1.523a6.971,6.971,0,0,0-3.757-.109L457.722,167.6H439.911l-12.077-4.472,7.426-2.75h13.175l11.581-4.289h8.644l19.52,7.228c-.876.422-.8,1.027.241,1.414a6.858,6.858,0,0,0,4.116,0c1.138-.421,1.138-1.1,0-1.523a7,7,0,0,0-3.695-.128l-20.007-7.41h-8.993l-11.583,4.289H436.389l23.743-8.792h12.82l26.723,9.895h50.232v-.418H499.85l-26.723-9.9H459.957l-.075.028-32.7,12.108L418.6,159.7l36.95-13.682h26.062l21.5,7.961h46.791v-.418H503.289l-20.373-7.543h66.991v-.42H455.377l-.076.028L417.949,159.46l-9.748-3.61,51.526-19.079h90.178v-.417H484.191l65.715-24.333v-.481l-67.015,24.816H460.2l48.853-18.089v-3.987l23.376-8.655a6.972,6.972,0,0,0,3.757-.108c1.138-.421,1.138-1.1,0-1.524a6.864,6.864,0,0,0-4.115,0c-1.025.379-1.117.97-.293,1.391l-12.729,4.713V99.169l30.854-11.425v-.482L518.4,98.928v11.408l-10,3.7v3.987l-49.253,18.238.164.182-51.764,19.167-9.412-3.485,53.176-19.689,0-32.4,98.59-36.505v-.482L466.841,93.811V64.51l63.577-23.541c.045.02.08.041.129.059a6.866,6.866,0,0,0,4.116,0C535.8,40.607,535.8,39.924,534.663,39.5Zm-89.248,130.61L369.035,198.4l-76.377-28.281,76.38-28.282Z" transform="translate(0 -39.188)" fill="url(#radial-gradient)"/>
    </g>
    <g id="Group_14817" data-name="Group 14817" transform="translate(-80.055 -27307.658) rotate(30)" opacity="0.99">
      <path id="Path_19048-2" data-name="Path 19048" d="M14179.153,23682.531a4.492,4.492,0,0,0-3.242.77c-.82.469-1.109,1.012-.828,1.371l-61,35.215-6.9,32.5-14.861,8.578-7.51,35.348-50.9,29.387-6.51-2.113,39.252-22.664,4.119-19.375-.129-.039-36.629-11.906,1.395-6.574,25.242-14.566a5.522,5.522,0,0,0,3.3-.68c1.09-.629,1.246-1.371.352-1.664a5.205,5.205,0,0,0-3.586.613c-.979.57-1.2,1.227-.578,1.563l-25.236,14.57-1.508,7.1.129.039,36.625,11.9-4.006,18.852-29.66,17.125,1.717-8.07,13.6-7.855a5.438,5.438,0,0,0,3.3-.676c1.088-.629,1.244-1.371.352-1.664a5.222,5.222,0,0,0-3.586.613c-.982.566-1.2,1.227-.578,1.563l-13.6,7.852-1.826,8.6-8.973,5.18-8.705-2.832,2.986-14.059,20.006-11.551,2.064-9.719-.127-.039-34.564-11.238c.816-.582.873-1.207.068-1.473a5.224,5.224,0,0,0-3.588.609c-1.086.633-1.246,1.375-.352,1.668a5.085,5.085,0,0,0,3.246-.441l34.7,11.273-1.953,9.2-19.383,11.191,2.059-9.691-.129-.039-21.148-6.875c.816-.582.875-1.215.066-1.477a5.2,5.2,0,0,0-3.586.613c-1.088.629-1.246,1.371-.352,1.668a5.118,5.118,0,0,0,3.248-.441l21.275,6.91-5.047,23.75-6.115-1.984-12.275,7.086-9.125-2.965,2.424-11.406-.127-.039-24.125-7.84,2.285-10.75a5.623,5.623,0,0,0,1.582-.59c1.088-.629,1.246-1.371.354-1.664a5.206,5.206,0,0,0-3.588.613c-1.09.625-1.246,1.371-.354,1.664a3.626,3.626,0,0,0,1.439.074l-2.342,11.008.129.047,24.123,7.84-2.312,10.871-39.258-12.762,4.547-21.4,25.945-14.977,21.674-3.7.07-.043,40.854-23.586a5.524,5.524,0,0,0,3.3-.676c1.088-.629,1.244-1.375.354-1.66a5.18,5.18,0,0,0-3.588.609c-.98.566-1.2,1.223-.578,1.559l-40.471,23.367-20.537,3.5L14057,23729.3a5.489,5.489,0,0,0,3.3-.676c1.088-.625,1.248-1.371.354-1.664a5.2,5.2,0,0,0-3.586.613c-.982.566-1.2,1.223-.58,1.559l-102.068,58.934-4.66,21.926.127.043,48.768,15.855-11.959,6.906-83.262-27.07,5.43-25.547-.129-.043-28.314-9.2c.814-.586.873-1.207.068-1.473a5.2,5.2,0,0,0-3.586.613c-1.09.629-1.248,1.367-.354,1.66a5.061,5.061,0,0,0,3.248-.437l28.443,9.246-5.428,25.547.125.039,83.135,27.023-11.387,6.578-82.34-26.762-54.471,9.289-30.689-9.973,5.15-24.258a4.89,4.89,0,0,0,1.045-.445c1.088-.625,1.248-1.371.355-1.66a5.163,5.163,0,0,0-3.588.613c-1.09.625-1.246,1.371-.354,1.66a4.072,4.072,0,0,0,1.963-.016l-5.2,24.465.129.039,30.936,10.063,54.469-9.3,69.508,22.59-15.512,2.645-23.719-7.711-20.273,3.461-.07.039-30.879,17.832a5.5,5.5,0,0,0-3.3.676c-1.09.625-1.244,1.375-.352,1.66a5.178,5.178,0,0,0,3.586-.609c.98-.566,1.2-1.223.578-1.559l30.494-17.609,19.967-3.4,23.723,7.707,16.645-2.84,11.57,3.758-30.393,17.547-7.092-2.3,2.033-9.578-18.016-5.855c.814-.578.873-1.211.066-1.473a5.164,5.164,0,0,0-3.588.613c-1.086.633-1.244,1.371-.354,1.66a5.072,5.072,0,0,0,3.252-.437l18.016,5.855-1.924,9.047-19.213-6.242-10.092,1.719-.072.043-13.217,7.629a5.5,5.5,0,0,0-3.3.676c-1.088.629-1.246,1.375-.354,1.668a5.229,5.229,0,0,0,3.588-.613c.98-.57,1.2-1.227.578-1.562l12.836-7.41,9.787-1.668,26.443,8.594-5.854,3.379,15.33,4.984-8.746,5.047-12.041,2.059-7.77-2.531c.785-.574.828-1.187.031-1.445a5.175,5.175,0,0,0-3.586.609c-1.09.633-1.25,1.371-.355,1.66a5.075,5.075,0,0,0,3.289-.461l8.139,2.648,11.213-1.914-22.309,12.879-43.072-14-34.381,5.867-.072.043-21.262,12.277a5.524,5.524,0,0,0-3.3.672c-1.088.629-1.244,1.375-.352,1.664a5.2,5.2,0,0,0,3.586-.609c.98-.566,1.2-1.227.578-1.562l20.879-12.051,34.074-5.816,33.223,10.8-15.773,2.691-13.9-4.52c.816-.578.873-1.211.07-1.469a5.189,5.189,0,0,0-3.59.609c-1.086.629-1.246,1.371-.352,1.664a5.054,5.054,0,0,0,3.246-.441l14.275,4.641,16.912-2.887,8.588,2.793-26.646,15.379-77.523,13.227-54.295-17.645c.814-.582.871-1.215.066-1.477a5.2,5.2,0,0,0-3.586.613c-1.09.625-1.244,1.375-.354,1.66a5.021,5.021,0,0,0,3.252-.437l54.67,17.773,76.691-13.09-10.572,6.1-57.387,9.793-.068.043-31.09,17.949a5.492,5.492,0,0,0-3.3.676c-1.09.629-1.246,1.371-.354,1.664a5.184,5.184,0,0,0,3.586-.617c.98-.562,1.2-1.215.58-1.559l30.7-17.727,57.385-9.793.072-.043,71.441-41.238,6.506,2.109-75.107,43.367-50,8.527-.072.043-66.344,38.309-83.68,14.277-14.584-4.742-.113.527,14.447,4.7,83.98-14.328.068-.047,41.637-24.035-2.209,10.4-27.445,15.84a5.471,5.471,0,0,0-3.3.68c-1.086.629-1.246,1.371-.352,1.664a5.231,5.231,0,0,0,3.588-.613c.979-.566,1.193-1.23.574-1.566l27.449-15.84,2.309-10.867-.131.023,24.23-13.992,50-8.535.07-.039,75.494-43.582,7.393,2.4-146.48,84.566-2.371,11.172.566-.1,2.32-10.91,146.48-84.566,9.133,2.965-75.559,43.629-1.211,5.7-13.395,7.738-2.791,13.105-25.977,15a5.434,5.434,0,0,0-3.3.68,2.259,2.259,0,0,0-.812.7l4.947-.84a.627.627,0,0,0-.324-.379l25.979-15,2.785-13.109,12.775-7.375-4.465,21,6.189,2.008-13.584,7.84,1.133-.191,12.963-7.477,10.637,3.453,1.131-.2-17.844-5.8,5.672-26.7,75.563-43.625,8.316,2.7-53.475,30.871a5.492,5.492,0,0,0-3.3.676c-1.088.629-1.246,1.371-.352,1.664a5.159,5.159,0,0,0,3.586-.613c.979-.57,1.2-1.223.576-1.562l53.475-30.871,8.029,2.613-63.965,36.926-15.828,2.7a.747.747,0,0,0-.562-.48,5.2,5.2,0,0,0-3.588.609c-1.09.625-1.246,1.375-.354,1.664a5.205,5.205,0,0,0,3.586-.613,2.31,2.31,0,0,0,.822-.723l15.98-2.723.068-.047,64.35-37.145,3.24,1.047,3.039-1.754,12.578,4.09-1.914,9-12.662,7.309.008-.02-18.088,3.078-.074.043-21.8,12.59a5.527,5.527,0,0,0-3.3.672c-1.088.629-1.242,1.379-.352,1.668a5.2,5.2,0,0,0,3.586-.613c.982-.57,1.2-1.223.576-1.562l21.418-12.367,17-2.9-37.225,21.488a5.445,5.445,0,0,0-3.363.664c-1.09.629-1.246,1.375-.35,1.664a5.2,5.2,0,0,0,3.586-.609c.957-.555,1.193-1.2.627-1.543l46.43-26.8-.922,4.336-27.623,15.941-1.748,8.234-22.49,12.984a5.524,5.524,0,0,0-3.3.672c-1.086.637-1.244,1.379-.35,1.668a5.225,5.225,0,0,0,3.588-.605c.98-.57,1.193-1.234.574-1.566l22.49-12.984,1.748-8.234,27.623-15.945,1.033-4.859,3.869-2.23,2.025-9.531-12.58-4.086,10.07-5.816,25.881,8.414-3.217,15.133-21.412,12.359a5.419,5.419,0,0,0-3.365.664c-1.086.629-1.246,1.371-.352,1.664a5.208,5.208,0,0,0,3.586-.617c.957-.551,1.191-1.191.625-1.539l20.807-12.008-2.6,12.223-16.434,9.492-3.154,14.844.568-.1,3.1-14.578,15.813-9.133-4.516,21.258.566-.1,10.609-49.922-25.881-8.41,11.309-6.527,33.826,10.992-8.8,41.43,16.258,5.281-.172.82.566-.1.229-1.078-16.258-5.285,8.8-41.43-33.824-11,8.381-4.836,45.648,14.832-7.51,35.352,25.236,8.2,1.137-.187-25.75-8.371,7.512-35.348-45.65-14.84,13.586-7.844,75.951,24.688-3.74,17.586,26.029,8.465.113-.527-25.516-8.293,3.736-17.59-42.721-13.883,37.477-6.395,34.451,11.2.115-.523-34.316-11.16-38.613,6.594-32.342-10.512,15.789-9.117,27.8,9.035,49.516-8.445,16.068,5.219.115-.523-3.527-1.148,3.91-.664.1-.461-4.891.836-11.52-3.742-49.52,8.449-7.779-2.527,21.051-3.594.07-.043,11.6-6.7,44-7.5.129.043.117-.523-43.16,7.363,13.061-7.535a5.494,5.494,0,0,0,3.3-.68c1.086-.629,1.246-1.375.352-1.664a5.2,5.2,0,0,0-3.584.613c-.98.566-1.2,1.223-.58,1.559l-25.355,14.641-21.883,3.734-18.764-6.1,8.451-4.871-4.461-1.457,14.385-2.449,16.949,5.508c-.814.582-.873,1.215-.066,1.473a5.207,5.207,0,0,0,3.588-.613c1.09-.621,1.244-1.371.352-1.66a5.085,5.085,0,0,0-3.246.441l-17.326-5.633-15.521,2.645-9.488-3.078,7.109-4.105,11.482-1.957,11.084-6.4,7.535-1.289,15.334,4.988c-.861.586-.937,1.242-.119,1.5a5.23,5.23,0,0,0,3.59-.609c1.086-.629,1.242-1.375.352-1.664a5.073,5.073,0,0,0-3.191.406l-15.715-5.1-7.836,1.336-11.09,6.4-10.344,1.762,22.73-13.121,11.17-1.9,20.994,6.816,43.775-7.461.1-.457-43.621,7.441-20.994-6.824-11.479,1.957-.068.043-31.3,18.07-6.742-2.187,35.371-20.426,22.711-3.871,16.891,5.488,40.777-6.957.1-.457-40.623,6.93-16-5.2,44.861-7.754.1-.453-68.859,11.844-.07.039-35.756,20.648-7.66-2.492,49.326-28.477,78.584-13.41.1-.457-57.266,9.777,62.908-36.32.111-.527-64.162,37.043-19.773,3.371,46.768-27,.924-4.352,22.377-12.918a5.465,5.465,0,0,0,3.3-.68c1.088-.629,1.248-1.367.352-1.66a5.193,5.193,0,0,0-3.584.609c-.982.566-1.2,1.227-.578,1.563l-12.184,7.035,2.533-11.918,29.537-17.055.111-.527-30.16,17.41-2.645,12.449-9.568,5.527-.924,4.348-47.15,27.223.1.172-49.551,28.613-7.393-2.406,50.9-29.387,7.512-35.348,94.375-54.488.115-.527-79.514,45.91,6.791-31.973,60.857-35.137c.035.016.063.031.1.047a4.49,4.49,0,0,0,3.242-.77C14179.89,23683.566,14180.048,23682.824,14179.153,23682.531Zm-107.707,155.934-73.117,42.211-60-19.5,73.115-42.215Z" transform="translate(0 0)" fill="url(#radial-gradient-2)"/>
      <path id="Path_23577" data-name="Path 23577" d="M77.1,130.332c.595-.1,1.071.089,1.205.489a1.34,1.34,0,0,1-.591,1.338,2.188,2.188,0,0,1-1.656.531.744.744,0,0,1-.672-.933,2.185,2.185,0,0,1,1.714-1.426Z" transform="translate(14077.883 23676.52)" fill="#2e95a2"/>
      <path id="Path_23578" data-name="Path 23578" d="M77.1,130.332c.595-.1,1.071.089,1.205.489a1.34,1.34,0,0,1-.591,1.338,2.188,2.188,0,0,1-1.656.531.744.744,0,0,1-.672-.933,2.185,2.185,0,0,1,1.714-1.426Z" transform="translate(14081.579 23659.117)" fill="#2e95a2"/>
    </g>
  </g>
</svg>
