<svg xmlns="http://www.w3.org/2000/svg" xmlns:xlink="http://www.w3.org/1999/xlink" width="512" height="588" viewBox="0 0 512 588">
  <defs>
    <clipPath id="clip-path">
      <rect id="Rectangle_1771" data-name="Rectangle 1771" width="512" height="588" fill="#fff"/>
    </clipPath>
    <linearGradient id="linear-gradient" x1="0.024" y1="-0.943" x2="0.855" y2="1.612" gradientUnits="objectBoundingBox">
      <stop offset="0" stop-color="#ffd5d3"/>
      <stop offset="1" stop-color="#fe96a6"/>
    </linearGradient>
    <linearGradient id="linear-gradient-2" x1="0.613" y1="0.054" x2="0.415" y2="1.131" gradientUnits="objectBoundingBox">
      <stop offset="0" stop-color="#52c4ff"/>
      <stop offset="1" stop-color="#2c84ff"/>
    </linearGradient>
    <linearGradient id="linear-gradient-3" x1="-1.234" y1="-1.672" x2="0.504" y2="0.672" xlink:href="#linear-gradient-2"/>
    <linearGradient id="linear-gradient-4" x1="0.55" y1="0.006" x2="0.383" y2="1.117" xlink:href="#linear-gradient-2"/>
    <linearGradient id="linear-gradient-5" x1="0.703" y1="0.432" x2="2.246" y2="-1.629" xlink:href="#linear-gradient"/>
    <linearGradient id="linear-gradient-6" x1="0.513" y1="0.116" x2="0.351" y2="2.023" xlink:href="#linear-gradient-2"/>
    <linearGradient id="linear-gradient-7" x1="0.978" y1="-3.111" x2="0.286" y2="2.695" xlink:href="#linear-gradient"/>
    <linearGradient id="linear-gradient-8" x1="-1.876" y1="-1.593" x2="0.699" y2="0.651" xlink:href="#linear-gradient-2"/>
    <linearGradient id="linear-gradient-9" x1="1.693" y1="4.828" x2="0.233" y2="-0.624" gradientUnits="objectBoundingBox">
      <stop offset="0" stop-color="#002757"/>
      <stop offset="1" stop-color="#061f3e"/>
    </linearGradient>
    <linearGradient id="linear-gradient-10" x1="1.25" y1="2.481" x2="-0.713" y2="-2.623" xlink:href="#linear-gradient"/>
    <linearGradient id="linear-gradient-11" x1="1.45" y1="3.725" x2="0.268" y2="-0.252" xlink:href="#linear-gradient"/>
    <linearGradient id="linear-gradient-12" x1="0.052" y1="0.804" x2="2.32" y2="-2.222" xlink:href="#linear-gradient"/>
    <linearGradient id="linear-gradient-13" x1="0.044" y1="-1.316" x2="0.534" y2="0.634" gradientUnits="objectBoundingBox">
      <stop offset="0" stop-color="#f4abff"/>
      <stop offset="1" stop-color="#9552ff"/>
    </linearGradient>
    <linearGradient id="linear-gradient-14" x1="0.516" y1="-1.455" x2="0.498" y2="0.762" gradientUnits="objectBoundingBox">
      <stop offset="0" stop-color="#ffb1e2"/>
      <stop offset="1" stop-color="#ff5c8e"/>
    </linearGradient>
    <linearGradient id="linear-gradient-15" x1="0.528" y1="-1.45" x2="0.503" y2="0.765" xlink:href="#linear-gradient-2"/>
    <linearGradient id="linear-gradient-16" x1="0.522" y1="-1.444" x2="0.497" y2="0.769" xlink:href="#linear-gradient-14"/>
    <linearGradient id="linear-gradient-17" x1="0.516" y1="-1.439" x2="0.498" y2="0.772" xlink:href="#linear-gradient-2"/>
    <linearGradient id="linear-gradient-18" x1="0.487" y1="-1.869" x2="0.529" y2="4.752" xlink:href="#linear-gradient-14"/>
    <linearGradient id="linear-gradient-19" x1="0.508" y1="-0.778" x2="0.485" y2="2.119" xlink:href="#linear-gradient-2"/>
    <linearGradient id="linear-gradient-20" x1="0.486" y1="-1.884" x2="0.529" y2="4.737" xlink:href="#linear-gradient-14"/>
    <linearGradient id="linear-gradient-22" x1="-0.059" y1="-0.886" x2="0.775" y2="1.183" xlink:href="#linear-gradient-13"/>
    <linearGradient id="linear-gradient-23" x1="0.103" y1="-0.36" x2="1.407" y2="2.467" gradientUnits="objectBoundingBox">
      <stop offset="0" stop-color="#fff489"/>
      <stop offset="1" stop-color="#fe7f20"/>
    </linearGradient>
    <linearGradient id="linear-gradient-24" x1="-0.277" y1="-1.64" x2="0.747" y2="1.179" xlink:href="#linear-gradient-23"/>
    <linearGradient id="linear-gradient-25" x1="0.134" y1="0.298" x2="9.964" y2="5.945" xlink:href="#linear-gradient-23"/>
    <linearGradient id="linear-gradient-26" x1="-0.05" y1="-0.446" x2="1.328" y2="1.923" gradientUnits="objectBoundingBox">
      <stop offset="0" stop-color="#31e282"/>
      <stop offset="1" stop-color="#006391"/>
    </linearGradient>
    <clipPath id="clip-path-2">
      <path id="Path_23921" data-name="Path 23921" d="M-27.212,82.746A300.628,300.628,0,0,1-72.793,167.7q-5.353,7.039-11.154,13.828A301.309,301.309,0,0,1-114.2,212.235q-6.947,6.1-14.3,11.752-10.653,8.194-22.106,15.342-6.284,3.913-12.8,7.471-5.031,2.754-10.208,5.276a234.885,234.885,0,0,1-63.762,20.694q-4.224.72-8.5,1.282-3.385.449-6.807.786-2.981.3-5.99.524-6.348.472-12.8.577a230.8,230.8,0,0,1-31.68-1.648q-9.278-1.113-18.733-3.006-11.088-2.227-21.577-5.208-7.091-2-13.907-4.332-8.149-2.767-15.9-5.982h-.007a254.535,254.535,0,0,1-36.147-18.4,244.6,244.6,0,0,1-34.552-25.587q-5.292-4.688-10.208-9.6-6.741-6.712-12.8-13.8c-42.256-49.315-59.511-110.437-50.311-159.663C-498.511-71.626-422.5-101.1-357.362-93.152c21.4,2.608,41.633,9.257,58.274,18.752a132.12,132.12,0,0,0,30.832,12.876,124.452,124.452,0,0,0,13.88,2.983h.007q5.052.8,10.071,1.192c4.3.352,8.585.494,12.838.457,1.65-.016,3.3-.053,4.949-.121,39.942-1.581,77.428-17.836,111.228-23.864C-61.653-90.431,9.2-25.113-27.212,82.746Z" transform="translate(528.832 207.46)" fill="#4786d1"/>
    </clipPath>
    <linearGradient id="linear-gradient-27" x1="1.433" y1="-0.118" x2="0.647" y2="0.444" gradientUnits="objectBoundingBox">
      <stop offset="0" stop-color="#56e281"/>
      <stop offset="1" stop-color="#00966a"/>
    </linearGradient>
    <linearGradient id="linear-gradient-28" x1="-0.137" y1="0.083" x2="0.374" y2="0.468" xlink:href="#linear-gradient-27"/>
    <linearGradient id="linear-gradient-29" x1="0.531" y1="0.165" x2="0.398" y2="1.383" xlink:href="#linear-gradient-27"/>
    <linearGradient id="linear-gradient-30" x1="0.548" y1="0.006" x2="0.415" y2="1.224" xlink:href="#linear-gradient-27"/>
  </defs>
  <g id="Mask_Group_27" data-name="Mask Group 27" clip-path="url(#clip-path)">
    <g id="Group_14926" data-name="Group 14926" transform="translate(-4.352 36)">
      <path id="Path_23920" data-name="Path 23920" d="M6.152,140.906c-11.72,34.722-489.191-20.337-478.22-79.038-.9-121.251,61.188-164.284,138.871-154.81C-307.674-89.832-283.55-81.9-263.7-70.58a157.553,157.553,0,0,0,36.767,15.355,148.4,148.4,0,0,0,16.552,3.557h.008q6.025.953,12.01,1.422c5.126.419,10.237.589,15.309.545,1.967-.019,3.934-.063,5.9-.145,47.631-1.886,92.333-21.27,132.64-28.457C19.437-89.7,78.5,13.367,6.152,140.906Z" transform="translate(472.605 151.151)" fill="none" stroke="#4786d1" stroke-width="2" stroke-dasharray="11" opacity="0"/>
      <g id="Group_14858" data-name="Group 14858" transform="translate(9.145 113.08)">
        <path id="Path_23838" data-name="Path 23838" d="M-27.212,82.746A300.628,300.628,0,0,1-72.793,167.7q-5.353,7.039-11.154,13.828A301.309,301.309,0,0,1-114.2,212.235q-6.947,6.1-14.3,11.752-10.653,8.194-22.106,15.342-6.284,3.913-12.8,7.471-5.031,2.754-10.208,5.276a234.885,234.885,0,0,1-63.762,20.694q-4.224.72-8.5,1.282-3.385.449-6.807.786-2.981.3-5.99.524-6.348.472-12.8.577a230.8,230.8,0,0,1-31.68-1.648q-9.278-1.113-18.733-3.006-11.088-2.227-21.577-5.208-7.091-2-13.907-4.332-8.149-2.767-15.9-5.982h-.007a254.535,254.535,0,0,1-36.147-18.4,244.6,244.6,0,0,1-34.552-25.587q-5.292-4.688-10.208-9.6-6.741-6.712-12.8-13.8c-42.256-49.315-59.511-110.437-50.311-159.663C-498.511-71.626-422.5-101.1-357.362-93.152c21.4,2.608,41.633,9.257,58.274,18.752a132.12,132.12,0,0,0,30.832,12.876,124.452,124.452,0,0,0,13.88,2.983h.007q5.052.8,10.071,1.192c4.3.352,8.585.494,12.838.457,1.65-.016,3.3-.053,4.949-.121,39.942-1.581,77.428-17.836,111.228-23.864C-61.653-90.431,9.2-25.113-27.212,82.746Z" transform="translate(519.687 94.38)" fill="#4786d1"/>
        <path id="Path_23839" data-name="Path 23839" d="M-97.244,82.217a300.622,300.622,0,0,1-45.581,84.954q-5.353,7.039-11.154,13.828a301.327,301.327,0,0,1-30.251,30.707q-6.947,6.1-14.3,11.752-10.653,8.194-22.106,15.342-6.284,3.912-12.8,7.471-5.031,2.754-10.208,5.276A234.886,234.886,0,0,1-307.4,272.242q-4.224.72-8.5,1.282-3.384.449-6.807.786-2.981.3-5.99.524-6.348.472-12.8.577a230.8,230.8,0,0,1-31.68-1.648q-9.278-1.113-18.733-3.006-11.088-2.227-21.577-5.208-7.092-2-13.907-4.332v-354.9c21.4,2.608,41.632,9.257,58.274,18.752a132.124,132.124,0,0,0,30.832,12.876,124.452,124.452,0,0,0,13.88,2.983h.007q5.052.8,10.071,1.192c4.3.352,8.585.494,12.838.457,1.65-.016,3.3-.053,4.949-.121,39.943-1.581,77.428-17.836,111.228-23.864C-131.685-90.961-60.835-25.642-97.244,82.217Z" transform="translate(589.719 94.91)" fill="#336dc1"/>
      </g>
      <g id="Group_14859" data-name="Group 14859" transform="translate(181.307 165.195)">
        <path id="Path_23840" data-name="Path 23840" d="M-352.564,73.45v72.224q-4.224.662-8.5,1.18-3.385.414-6.807.725V73.45Z" transform="translate(462.721 169.616)" fill="#4a9ae2"/>
        <rect id="Rectangle_1702" data-name="Rectangle 1702" width="15.309" height="21.162" transform="translate(94.848 243.065)" fill="#4788d6"/>
        <path id="Path_23841" data-name="Path 23841" d="M-421.8,83.688H-245.16l3.141-19.189H-421.8Z" transform="translate(421.801 162.823)" fill="#5aa3e7"/>
        <path id="Path_23842" data-name="Path 23842" d="M-337.443-64.749h91.076a23.063,23.063,0,0,1,22.69,27.189l-36.388,200.133H-398.021L-360.135-45.81A23.065,23.065,0,0,1-337.443-64.749Z" transform="translate(439.845 64.749)" fill="#5aa3e7"/>
        <path id="Path_23843" data-name="Path 23843" d="M-344.486-64.749h91.076a23.063,23.063,0,0,1,22.69,27.189l-36.388,200.133H-405.064L-367.176-45.81A23.061,23.061,0,0,1-344.486-64.749Z" transform="translate(434.501 64.749)" fill="#6aacec"/>
      </g>
      <g id="Group_14864" data-name="Group 14864" transform="translate(119.42 99.753)">
        <g id="Group_14860" data-name="Group 14860" transform="translate(0 244.703)">
          <path id="Path_23844" data-name="Path 23844" d="M-293.4,51.778c-.007.5-.027,1.008-.047,1.525-.415,8.745-3.257,19.4-12.8,27.608a40.475,40.475,0,0,1-6.08,4.321,69.127,69.127,0,0,1-6.717,3.431c-15.55,6.956-34.786,9.5-48.48,10.407-10.382.691-17.574.429-17.574.429l-35.739,58.041h-.007a263.508,263.508,0,0,1-36.147-16.946c16.014-28.092,36.7-64.355,43.683-76.517,2.872-5,8.938-9.042,16.517-12.3,24.027-10.34,63.19-12.8,63.19-12.8l9.524-.448,17.829-.842,11.029-.517s.153.484.366,1.36c.172.689.38,1.629.587,2.768A53.95,53.95,0,0,1-293.4,51.778Z" transform="translate(456.988 -37.173)" fill="#202070"/>
          <path id="Path_23845" data-name="Path 23845" d="M-261.337,51.778c-.179,10.588-3.734,24.558-18.924,33.454-12.115,7.088-27.879,10.692-41.641,12.514-4.555.6-8.891,1-12.8,1.277-5.169.359-9.594.484-12.8.517-3.484.035-5.535-.04-5.535-.04l-26.145,75.1q-9.279-1.026-18.733-2.768-11.088-2.05-21.577-4.8c5.253-15.993,14.763-44.429,23.51-67.967,5.7-15.349,11.077-28.623,14.735-34.993,2.872-5,8.945-9.042,16.517-12.3,8.863-3.81,19.774-6.55,30.024-8.49,4.161-.788,8.221-1.442,11.983-1.987,12.106-1.746,21.19-2.32,21.19-2.32l7.674-.359,1.843-.09,28.858-1.36.062.206c.063.215.172.609.3,1.154A53.241,53.241,0,0,1-261.337,51.778Z" transform="translate(485.444 -37.173)" fill="#34318b"/>
        </g>
        <g id="Group_14862" data-name="Group 14862" transform="translate(58.689 82.418)">
          <g id="Group_14861" data-name="Group 14861" transform="translate(91.16 0)">
            <path id="Path_23846" data-name="Path 23846" d="M-330.565,68.219c0,1.477-.007,2.955-.014,4.423-.048,18.65-.3,35.906-.3,35.906l-40.018-7.178s-.772-15.842-.883-28.728c-.014-1.525-.014-3.009-.007-4.423.028-5.922.269-10.574.89-11.638a3.207,3.207,0,0,0,.255-.911c.165-.916.332-2.436.491-4.43.241-3.141.47-7.468.677-12.54q.092-2.134.18-4.432c.144-3.92.281-8.157.406-12.549.042-1.462.082-2.939.125-4.423.116-4.147.22-8.372.316-12.547.035-1.484.071-2.969.1-4.432.1-4.348.18-8.587.262-12.547q.042-2.279.083-4.425c.229-11.707.373-20.112.422-20.313.165-.656,8.523-13.288,8.523-13.288L-339.2-55.1l8.323,9.561s-.144,12.823-.241,28.878q-.01,2.174-.021,4.425c-.019,4.086-.033,8.317-.041,12.547-.007,1.477-.007,2.962-.007,4.432,0,4.279.007,8.516.021,12.547q.011,2.258.026,4.423c.035,4.647.083,8.919.167,12.549.026,1.409.062,2.719.1,3.92.007.165.014.338.014.512.111,3.644.187,7.923.229,12.54q.021,2.174.035,4.43C-330.572,59.736-330.565,63.98-330.565,68.219Z" transform="translate(371.789 55.097)" fill="#fff"/>
            <path id="Path_23847" data-name="Path 23847" d="M-332.718-33.242q-.01,2.174-.021,4.425h-36.94q.042-2.279.083-4.425Z" transform="translate(373.389 71.681)" fill="#efeff4"/>
            <path id="Path_23848" data-name="Path 23848" d="M-332.621-23.592c-.007,1.477-.007,2.962-.007,4.432h-37.258c.035-1.484.07-2.969.1-4.432Z" transform="translate(373.232 79.003)" fill="#efeff4"/>
            <path id="Path_23849" data-name="Path 23849" d="M-332.391-9.515h-37.747c.042-1.462.082-2.939.125-4.423h37.6Q-332.406-11.68-332.391-9.515Z" transform="translate(373.041 86.329)" fill="#efeff4"/>
            <path id="Path_23850" data-name="Path 23850" d="M-331.862.144h-38.609q.092-2.134.18-4.432h38.321c.027,1.409.062,2.719.095,3.92C-331.869-.2-331.862-.03-331.862.144Z" transform="translate(372.789 93.651)" fill="#efeff4"/>
            <path id="Path_23851" data-name="Path 23851" d="M-331.094,9.792h-40.041c.165-.916.332-2.436.491-4.43h39.515Q-331.108,7.536-331.094,9.792Z" transform="translate(372.285 100.974)" fill="#efeff4"/>
            <path id="Path_23852" data-name="Path 23852" d="M-330.565,15.016c0,1.477-.007,2.955-.014,4.423h-41.2c-.014-1.525-.014-3.009-.007-4.423Z" transform="translate(371.789 108.3)" fill="#efeff4"/>
          </g>
          <path id="Path_23853" data-name="Path 23853" d="M-351.627,4.873l-12.7,46-53.878,2.567-5.413-19.727,35.156-8.591,7.856-38.4,16.524,2.535Z" transform="translate(423.619 86.833)" fill="url(#linear-gradient)"/>
          <path id="Path_23854" data-name="Path 23854" d="M-303.085,103.568c-1.312,4.59-42.973,6.557-45.831,2.7-1.3-1.752-4.01-21.589-5.4-48.832C-356,24.745-355.77-18.608-348.93-54.21l21.9,9.512,7.02,10.5,13.647,16.725s-.581,29.975-1.194,49.854c-.042,1.229-.076,2.417-.118,3.555C-308.331,55.556-301.773,98.977-303.085,103.568Z" transform="translate(475.543 55.77)" fill="url(#linear-gradient-2)"/>
          <path id="Path_23855" data-name="Path 23855" d="M-303.46,87.788c-1.312,4.59-42.973,6.557-45.831,2.7-1.3-1.752-4.01-21.589-5.4-48.832,6.172-2.492,15.054-9.415,16.774-28.707,2.684-30.148,16.012-46.362,16.012-46.362a90.071,90.071,0,0,1,0,42.56l13.977,7.454c-.042,1.229-.076,2.417-.118,3.555C-308.707,39.776-302.148,83.2-303.46,87.788Z" transform="translate(475.919 71.55)" fill="url(#linear-gradient-3)"/>
          <path id="Path_23856" data-name="Path 23856" d="M-345.955,104.851s-36.409.913-35.753-.73S-374.5,89.363-370.936,77.7s4.97-56.238,4.97-56.238l-3.375,13.057a1.056,1.056,0,0,1-.111-.026c-.7-.179-4.589-1.187-9.394-2.457-8.967-2.381-21.086-5.7-21.4-6.309-.5-.987,4.093-21.322,8.358-35.43s12.141-32.8,53.485-42.642C-346.253-25.123-345.955,104.851-345.955,104.851Z" transform="translate(441.331 57.185)" fill="url(#linear-gradient-4)"/>
          <path id="Path_23857" data-name="Path 23857" d="M-263.435.151s-13.451,52.733-25.387,52.975-65.308-7.4-73.8-8.138a51.6,51.6,0,0,1-16.482-4.8s-12.3,8.856-13.9,6.64c-1.56-2.148,4.522-10.463,4.859-10.926-.415.359-9.828,8.667-11.872,6.625-2.091-2.091,9.719-19.809,16.732-20.05s22.632,7.253,22.632,7.253l57.3-4.921L-301.272,16l5.438-23.054Z" transform="translate(441.345 91.552)" fill="url(#linear-gradient-5)"/>
          <path id="Path_23858" data-name="Path 23858" d="M-353.261-55.1s27.063-.246,46.99,14.269,21.369,35.505,7.178,77.437c-7.366-1.548-32.424-5.24-32.4-7.208s9.5-48.58,9.5-48.58Z" transform="translate(477.007 55.097)" fill="url(#linear-gradient-6)"/>
          <path id="Path_23859" data-name="Path 23859" d="M-332.839,13.094c-.167,1.013-12.32,1.773-12.32,1.773l2.077-8.813C-337.934,9.242-332.756,12.582-332.839,13.094Z" transform="translate(483.155 101.499)" fill="url(#linear-gradient-7)"/>
          <path id="Path_23860" data-name="Path 23860" d="M-373.329-34.816s-1.228,13.536-1.884,42.975L-378.7,21.19c-.7-.179-4.589-1.187-9.394-2.457,3.824-6.275,7.751-14.9,8.124-24.268C-379.229-24.233-373.329-34.816-373.329-34.816Z" transform="translate(450.578 70.487)" fill="url(#linear-gradient-8)"/>
        </g>
        <g id="Group_14863" data-name="Group 14863" transform="translate(116.777)">
          <path id="Path_23861" data-name="Path 23861" d="M-373.153-65.544c-10.824.656-21.485-16.074-15.909-22.307s13.448,0,13.448,0-6.724-5.575-1.475-12.136,14.105,5.575,30.343,3.115,31.131,6.117,28.046,19.683c11.972,0,8.365,16.4,3.117,26.734s-14.433,25.585-25.258,14.1-21.815-16.072-21.815-16.072Z" transform="translate(390.592 101.957)" fill="url(#linear-gradient-9)"/>
          <path id="Path_23862" data-name="Path 23862" d="M-349.549-29.477c-8.773,1.553-13.121-3.036-14.922-6.066-1.1-1.843-1.229-4.673-2.037-8.062a24.334,24.334,0,0,0-2.884-7.192l23.943-17.959c-.227,3.113,1.27,8.337,2.962,13.272,1.966,5.73,4.2,11.079,4.334,12.313C-337.9-40.88-340.777-31.038-349.549-29.477Z" transform="translate(406.679 127.149)" fill="url(#linear-gradient-10)"/>
          <path id="Path_23863" data-name="Path 23863" d="M-342.488-55.485c-5.032,12.115-14.357,14.392-24.02,11.879a24.334,24.334,0,0,0-2.884-7.192l23.943-17.959C-345.676-65.644-344.18-60.42-342.488-55.485Z" transform="translate(406.679 127.149)" fill="url(#linear-gradient-11)"/>
          <path id="Path_23864" data-name="Path 23864" d="M-381.406-84.4c30.014,4.8,41.576,0,41.576,0s3.015,16.791,5.106,17.53.675-8.8,5.35-9.964,7.872,7.011,4.737,11.747-7.5,3.074-7.5,3.074-7.313,25.529-26.262,25.955-23.5-23.864-23.25-30.628S-381.9-80.22-381.406-84.4Z" transform="translate(397.369 115.278)" fill="url(#linear-gradient-12)"/>
        </g>
      </g>
      <g id="Group_14865" data-name="Group 14865" transform="translate(69.66 238.755)">
        <path id="Path_23865" data-name="Path 23865" d="M-345.445,23.2h-78.464a3.486,3.486,0,0,0-3.487,3.486h0a3.487,3.487,0,0,0,3.487,3.488h78.464a3.485,3.485,0,0,0,3.486-3.488h0A3.485,3.485,0,0,0-345.445,23.2Z" transform="translate(529.202 57.925)" fill="#202070"/>
        <path id="Path_23866" data-name="Path 23866" d="M-373.545-22.925H-479.824a5.3,5.3,0,0,0-5.35,6.518l14.645,81.581H-351.21l-14.646-81.581A8.146,8.146,0,0,0-373.545-22.925Z" transform="translate(485.28 22.925)" fill="#202070"/>
        <path id="Path_23867" data-name="Path 23867" d="M-442.684,16.335l-11.67-9.2,6.725-9.2,11.67,9.2Z" transform="translate(508.747 38.757)" fill="#4848aa"/>
        <path id="Path_23868" data-name="Path 23868" d="M-401.79,25.579a.921.921,0,0,1-.92.922.923.923,0,0,1-.922-.922.922.922,0,0,1,.922-.92A.921.921,0,0,1-401.79,25.579Z" transform="translate(547.235 59.032)" fill="#4848aa"/>
        <path id="Path_23869" data-name="Path 23869" d="M-393.467,25.579a.923.923,0,0,1-.922.922.921.921,0,0,1-.92-.922.921.921,0,0,1,.92-.92A.922.922,0,0,1-393.467,25.579Z" transform="translate(553.551 59.032)" fill="#4848aa"/>
        <path id="Path_23870" data-name="Path 23870" d="M-391.827,25.455a.633.633,0,0,1-.633.633.633.633,0,0,1-.633-.633.634.634,0,0,1,.633-.633A.634.634,0,0,1-391.827,25.455Z" transform="translate(555.231 59.156)" fill="#4848aa"/>
        <path id="Path_23871" data-name="Path 23871" d="M-396.393,26.088h-3.49a.633.633,0,0,1-.633-.633h0a.634.634,0,0,1,.633-.633h3.49a.634.634,0,0,1,.633.633h0A.633.633,0,0,1-396.393,26.088Z" transform="translate(549.599 59.156)" fill="#4848aa"/>
      </g>
      <g id="Group_14869" data-name="Group 14869" transform="translate(46.734 326.854)">
        <g id="Group_14868" data-name="Group 14868">
          <path id="Path_23872" data-name="Path 23872" d="M-203.918,38.949H-430.689a5.893,5.893,0,0,1-5.892-5.892h0a5.893,5.893,0,0,1,5.892-5.892h226.771a5.892,5.892,0,0,1,5.892,5.892h0A5.892,5.892,0,0,1-203.918,38.949Z" transform="translate(545.157 -27.165)" fill="#89bef5"/>
          <path id="Path_23873" data-name="Path 23873" d="M-265.651,38.949H-492.422a5.892,5.892,0,0,1-5.892-5.892h0a5.892,5.892,0,0,1,5.892-5.892h226.772a5.892,5.892,0,0,1,5.892,5.892h0A5.892,5.892,0,0,1-265.651,38.949Z" transform="translate(498.314 -27.165)" fill="#a9d0ff"/>
          <g id="Group_14866" data-name="Group 14866" transform="translate(15.127 11.784)">
            <path id="Path_23874" data-name="Path 23874" d="M-281.413,33.865V178.1q-6.348.435-12.8.531V54.288H-476.916l1.6,52.132c-4.494-4.119-9.858-10.368-13.9-14.709l-.5-57.846Z" transform="translate(489.713 -33.865)" fill="#89bef5"/>
          </g>
          <rect id="Rectangle_1703" data-name="Rectangle 1703" width="208.301" height="7.178" transform="translate(15.127 11.783)" fill="#6aacec"/>
          <g id="Group_14867" data-name="Group 14867" transform="translate(223.428 11.784)">
            <path id="Path_23875" data-name="Path 23875" d="M-263.212,33.865l.191,107.978c-4.189,2.4-8.7,5.484-13.045,7.665l.057-95.219h-82.474v122.6q-6.337.768-12.8,1.208V33.865Z" transform="translate(371.28 -33.865)" fill="#6aacec"/>
          </g>
          <rect id="Rectangle_1704" data-name="Rectangle 1704" width="108.067" height="7.178" transform="translate(223.428 11.783)" fill="#4788d6"/>
        </g>
        <path id="Path_23876" data-name="Path 23876" d="M-472.229,45.477l2.635,62.533c-3.528-2.879-8.235-7.56-11.514-10.577l-1.33-51.956Z" transform="translate(510.362 -13.27)" fill="#6aacec"/>
        <path id="Path_23877" data-name="Path 23877" d="M-312.708,45.477l-.046,95.268c-3.354,1.692-8,4.207-11.455,5.753l1.293-101.021Z" transform="translate(631.407 -13.27)" fill="#4788d6"/>
      </g>
      <g id="Group_14873" data-name="Group 14873" transform="translate(434.568 135.729)">
        <rect id="Rectangle_1705" data-name="Rectangle 1705" width="58.726" height="48.257" rx="5.359" fill="#bde1ff"/>
        <g id="Group_14872" data-name="Group 14872" transform="translate(12.787 6.923)">
          <rect id="Rectangle_1706" data-name="Rectangle 1706" width="24.865" height="21.429" rx="1.749" transform="translate(4.145 11.498)" fill="url(#linear-gradient-13)"/>
          <g id="Group_14871" data-name="Group 14871">
            <path id="Path_23884" data-name="Path 23884" d="M-265.461-69.808h-8.288l6.645-11.1h4.966Z" transform="translate(273.749 80.903)" fill="url(#linear-gradient-14)"/>
            <path id="Path_23885" data-name="Path 23885" d="M-259.141-69.808h-8.288l3.322-11.1h4.966Z" transform="translate(275.717 80.903)" fill="url(#linear-gradient-15)"/>
            <path id="Path_23886" data-name="Path 23886" d="M-252.821-69.808h-8.288V-80.9h4.966Z" transform="translate(277.686 80.903)" fill="url(#linear-gradient-16)"/>
            <path id="Path_23887" data-name="Path 23887" d="M-245.712-69.808H-254l-3.322-11.1h4.966Z" transform="translate(278.865 80.903)" fill="url(#linear-gradient-17)"/>
            <path id="Rectangle_1707" data-name="Rectangle 1707" d="M0,0H8.288a0,0,0,0,1,0,0V4.511a3.16,3.16,0,0,1-3.16,3.16H3.16A3.16,3.16,0,0,1,0,4.511V0A0,0,0,0,1,0,0Z" transform="translate(0 11.095)" fill="url(#linear-gradient-18)"/>
            <path id="Rectangle_1708" data-name="Rectangle 1708" d="M0,0H8.288a0,0,0,0,1,0,0V4.511a3.16,3.16,0,0,1-3.16,3.16H3.16A3.16,3.16,0,0,1,0,4.511V0A0,0,0,0,1,0,0Z" transform="translate(8.288 11.095)" fill="url(#linear-gradient-19)"/>
            <path id="Rectangle_1709" data-name="Rectangle 1709" d="M0,0H8.288a0,0,0,0,1,0,0V4.511a3.16,3.16,0,0,1-3.16,3.16H3.16A3.16,3.16,0,0,1,0,4.511V0A0,0,0,0,1,0,0Z" transform="translate(16.577 11.095)" fill="url(#linear-gradient-20)"/>
            <path id="Rectangle_1710" data-name="Rectangle 1710" d="M0,0H8.288a0,0,0,0,1,0,0V4.511a3.16,3.16,0,0,1-3.16,3.16H3.16A3.16,3.16,0,0,1,0,4.511V0A0,0,0,0,1,0,0Z" transform="translate(24.865 11.095)" fill="url(#linear-gradient-19)"/>
          </g>
          <path id="Path_23888" data-name="Path 23888" d="M-256.651-63.233v10.371h-7.206V-63.233a1.981,1.981,0,0,1,1.981-1.982h3.243A1.981,1.981,0,0,1-256.651-63.233Z" transform="translate(276.83 85.789)" fill="#202070"/>
        </g>
      </g>
      <g id="Group_14875" data-name="Group 14875" transform="translate(113.701 99.457)">
        <rect id="Rectangle_1711" data-name="Rectangle 1711" width="64.408" height="49.558" rx="2.588" fill="url(#linear-gradient-22)"/>
        <g id="Group_14874" data-name="Group 14874" transform="translate(7.333 6.559)">
          <path id="Path_23889" data-name="Path 23889" d="M-448.288-96.665H-455.2a.865.865,0,0,1-.865-.865h0a.866.866,0,0,1,.865-.865h6.917a.865.865,0,0,1,.864.865h0A.864.864,0,0,1-448.288-96.665Z" transform="translate(456.07 98.396)" fill="#fff"/>
          <path id="Path_23890" data-name="Path 23890" d="M-445.007-94.259h-10.2a.864.864,0,0,1-.865-.864h0a.865.865,0,0,1,.865-.865h10.2a.864.864,0,0,1,.864.865h0A.864.864,0,0,1-445.007-94.259Z" transform="translate(456.07 100.223)" fill="#fff" opacity="0.44"/>
        </g>
        <path id="Path_23891" data-name="Path 23891" d="M-456.07-81.6c6.977,0,6.5,4.571,11.926,4.571s4.355-8.808,11.332-8.808,4.829,4.4,9.482,4.4,3.579-4.962,8.409-4.962,2.682,6.356,9.3,6.356" transform="translate(463.404 114.063)" fill="rgba(0,0,0,0)" stroke="#000" stroke-linecap="round" stroke-linejoin="round" stroke-width="0.929" opacity="0.15"/>
        <path id="Path_23892" data-name="Path 23892" d="M-456.07-81.92c6.977,0,6.5,7.334,11.926,7.334s4.355-14.134,11.332-14.134,4.829,7.067,9.482,7.067,3.579-7.96,8.409-7.96,2.682,10.2,9.3,10.2" transform="translate(463.404 111.62)" fill="rgba(0,0,0,0)" stroke="#fff" stroke-linecap="round" stroke-linejoin="round" stroke-width="1.177"/>
      </g>
      <g id="Group_14915" data-name="Group 14915" transform="translate(19.537 78.745)">
        <g id="Group_14911" data-name="Group 14911">
          <g id="Group_14890" data-name="Group 14890">
            <g id="Group_14889" data-name="Group 14889">
              <g id="Group_14888" data-name="Group 14888">
                <g id="Group_14881" data-name="Group 14881">
                  <g id="Group_14880" data-name="Group 14880">
                    <g id="Group_14879" data-name="Group 14879">
                      <g id="Group_14878" data-name="Group 14878">
                        <g id="Group_14877" data-name="Group 14877">
                          <g id="Group_14876" data-name="Group 14876">
                            <path id="Path_23893" data-name="Path 23893" d="M-273.264-19.138l-42.428-.025a9.1,9.1,0,0,1-9.235-8.949l.019-102.984a9.1,9.1,0,0,1,9.248-8.945l42.427.023A9.1,9.1,0,0,1-264-131.067l-.021,102.984A9.1,9.1,0,0,1-273.264-19.138Z" transform="translate(324.927 140.04)" fill="#202070"/>
                          </g>
                        </g>
                      </g>
                    </g>
                  </g>
                </g>
                <g id="Group_14887" data-name="Group 14887" transform="translate(2.811 3.642)">
                  <g id="Group_14886" data-name="Group 14886">
                    <g id="Group_14885" data-name="Group 14885">
                      <g id="Group_14884" data-name="Group 14884">
                        <g id="Group_14883" data-name="Group 14883">
                          <g id="Group_14882" data-name="Group 14882">
                            <path id="Path_23894" data-name="Path 23894" d="M-274.491-137.946l-8.226,0a2.01,2.01,0,0,0-2,2.021v1.444a2.01,2.01,0,0,1-2,2.021l-16.033-.009a2.014,2.014,0,0,1-2-2.024l0-1.444a2.011,2.011,0,0,0-2-2.023l-2.893,0-7.2,0a6.371,6.371,0,0,0-6.476,6.265l-.021,100.52a6.371,6.371,0,0,0,6.469,6.267l42.342.025a6.372,6.372,0,0,0,6.476-6.265l.021-100.52A6.374,6.374,0,0,0-274.491-137.946Z" transform="translate(323.329 137.969)" fill="#fff"/>
                          </g>
                        </g>
                      </g>
                    </g>
                  </g>
                </g>
              </g>
            </g>
          </g>
          <g id="Group_14903" data-name="Group 14903" transform="translate(2.643 3.658)">
            <g id="Group_14902" data-name="Group 14902">
              <g id="Group_14901" data-name="Group 14901">
                <g id="Group_14900" data-name="Group 14900">
                  <g id="Group_14899" data-name="Group 14899">
                    <g id="Group_14898" data-name="Group 14898">
                      <g id="Group_14897" data-name="Group 14897">
                        <g id="Group_14896" data-name="Group 14896">
                          <g id="Group_14895" data-name="Group 14895">
                            <g id="Group_14894" data-name="Group 14894">
                              <g id="Group_14893" data-name="Group 14893">
                                <g id="Group_14892" data-name="Group 14892">
                                  <g id="Group_14891" data-name="Group 14891">
                                    <path id="Path_23895" data-name="Path 23895" d="M-274.338-137.872s.074,0,.222.005a5.038,5.038,0,0,1,.658.049,6.262,6.262,0,0,1,2.436.814,6.263,6.263,0,0,1,1.483,1.163,6.311,6.311,0,0,1,1.236,1.877,6.354,6.354,0,0,1,.485,2.552q0,1.393,0,2.964c.005,8.379.012,20.5.023,35.472s.005,32.807.009,52.608v9.422a6.515,6.515,0,0,1-.25,1.917,6.248,6.248,0,0,1-.829,1.773,6.872,6.872,0,0,1-1.352,1.453,6.7,6.7,0,0,1-3.75,1.409c-1.361.039-2.714.011-4.082.018q-4.094,0-8.268,0l-16.972-.007-8.68-.005-4.385,0a7.037,7.037,0,0,1-4.228-1.131,6.449,6.449,0,0,1-2.575-3.442,6.732,6.732,0,0,1-.271-2.128v-2.119q0-4.232,0-8.407,0-8.347.005-16.436c0-10.774.009-21.169.012-31.071s.009-19.31.014-28.116q0-6.6.007-12.741c0-.512,0-1.02,0-1.525,0-.253.023-.51.037-.763.046-.25.065-.5.132-.749a6.344,6.344,0,0,1,1.367-2.663,6.727,6.727,0,0,1,2.408-1.743,7.033,7.033,0,0,1,2.886-.529l5.66.007,2.724,0,1.333,0a2.138,2.138,0,0,1,1.278.346,2.089,2.089,0,0,1,.8,1.01,3.3,3.3,0,0,1,.132,1.242c0,.206,0,.41,0,.612a4.461,4.461,0,0,0,.021.6,1.961,1.961,0,0,0,.484,1.052,1.913,1.913,0,0,0,.992.6,2.248,2.248,0,0,0,.586.056l.6,0,2.345,0,8.562.012,3.774.007c.3-.005.6.012.885-.011a1.978,1.978,0,0,0,.795-.271,2,2,0,0,0,.909-1.266,3.366,3.366,0,0,0,.051-.763l0-.753a4.088,4.088,0,0,1,.035-.734,2.089,2.089,0,0,1,.245-.674,2.027,2.027,0,0,1,1.036-.886,3.369,3.369,0,0,1,1.289-.134c1.666.005,3.074.009,4.212.011l2.591.011c.584,0,.883.011.883.011s-.3.005-.883.007l-2.591.009-4.212.005a3.275,3.275,0,0,0-1.266.134,1.968,1.968,0,0,0-1,.864,2.029,2.029,0,0,0-.236.654,4.245,4.245,0,0,0-.032.723l0,.753a3.453,3.453,0,0,1-.051.777,2.06,2.06,0,0,1-.939,1.314,2.037,2.037,0,0,1-.827.283c-.3.026-.591.007-.894.014q-1.8,0-3.774,0c-2.631,0-5.491,0-8.562,0h-2.942a2.318,2.318,0,0,1-.61-.058,2.036,2.036,0,0,1-1.05-.628,2.064,2.064,0,0,1-.512-1.108,4.535,4.535,0,0,1-.023-.614v-.612a3.167,3.167,0,0,0-.127-1.2,1.966,1.966,0,0,0-.753-.955,2,2,0,0,0-1.212-.324h-9.717a6.865,6.865,0,0,0-2.833.521,6.6,6.6,0,0,0-2.357,1.71,6.213,6.213,0,0,0-1.335,2.608c-.065.239-.084.489-.128.733-.014.25-.032.5-.035.749v1.525q0,6.131,0,12.741c0,8.806,0,18.216,0,28.116s0,20.3,0,31.071q0,8.084,0,16.436v8.407l0,2.119a6.616,6.616,0,0,0,.264,2.077,6.281,6.281,0,0,0,2.5,3.347,6.842,6.842,0,0,0,4.124,1.1l4.385,0,8.68.005,16.972.011q4.171,0,8.268.007c1.363-.009,2.731.021,4.072-.018a6.515,6.515,0,0,0,3.65-1.37,6.736,6.736,0,0,0,1.317-1.414,6.142,6.142,0,0,0,.807-1.724,6.313,6.313,0,0,0,.243-1.873l0-1.907q0-3.8,0-7.515c.011-19.8.021-37.632.03-52.608s.028-27.093.035-35.472q0-1.57.005-2.964a6.25,6.25,0,0,0-.473-2.531,6.221,6.221,0,0,0-1.22-1.868,6.168,6.168,0,0,0-1.467-1.161,6.257,6.257,0,0,0-2.418-.827,5.456,5.456,0,0,0-.656-.06Z" transform="translate(323.424 137.96)" fill="#263238"/>
                                  </g>
                                </g>
                              </g>
                            </g>
                          </g>
                        </g>
                      </g>
                    </g>
                  </g>
                </g>
              </g>
            </g>
          </g>
          <g id="Group_14910" data-name="Group 14910" transform="translate(27.179 91.295)">
            <g id="Group_14904" data-name="Group 14904" transform="translate(0 0.127)">
              <path id="Path_23896" data-name="Path 23896" d="M-309.474-86.751l.095-.209a.838.838,0,0,0,.491.158c.232,0,.331-.079.331-.186,0-.311-.885-.107-.885-.642,0-.232.192-.431.6-.431a.957.957,0,0,1,.494.128l-.086.208a.854.854,0,0,0-.41-.113c-.231,0-.324.086-.324.2,0,.306.881.107.881.637,0,.23-.192.427-.6.427A.986.986,0,0,1-309.474-86.751Z" transform="translate(309.474 88.061)" fill="#fff"/>
            </g>
            <g id="Group_14905" data-name="Group 14905" transform="translate(1.402)">
              <path id="Path_23897" data-name="Path 23897" d="M-308.677-87.98a.16.16,0,0,1,.171-.153.156.156,0,0,1,.171.148.16.16,0,0,1-.171.16A.161.161,0,0,1-308.677-87.98Zm.037.336h.266v1.1h-.266Z" transform="translate(308.677 88.133)" fill="#fff"/>
            </g>
            <g id="Group_14906" data-name="Group 14906" transform="translate(1.961 0.477)">
              <path id="Path_23898" data-name="Path 23898" d="M-307.138-87.85v.934c0,.4-.216.579-.614.579a.921.921,0,0,1-.552-.157l.12-.193a.691.691,0,0,0,.418.132c.252,0,.361-.111.361-.332v-.058a.508.508,0,0,1-.38.146.534.534,0,0,1-.573-.533.532.532,0,0,1,.573-.529.5.5,0,0,1,.394.158v-.146Zm-.262.517a.316.316,0,0,0-.345-.311.316.316,0,0,0-.346.311.318.318,0,0,0,.346.315A.317.317,0,0,0-307.4-87.333Z" transform="translate(308.359 87.862)" fill="#fff"/>
            </g>
            <g id="Group_14907" data-name="Group 14907" transform="translate(3.532 0.477)">
              <path id="Path_23899" data-name="Path 23899" d="M-306.347-87.38v.63h-.266v-.6c0-.2-.1-.29-.271-.29a.3.3,0,0,0-.317.331v.556h-.266v-1.1h.253v.142a.5.5,0,0,1,.391-.155A.437.437,0,0,1-306.347-87.38Z" transform="translate(307.466 87.862)" fill="#fff"/>
            </g>
            <g id="Group_14908" data-name="Group 14908" transform="translate(5.542)">
              <path id="Path_23900" data-name="Path 23900" d="M-306.323-87.98a.158.158,0,0,1,.169-.153.156.156,0,0,1,.171.148.16.16,0,0,1-.171.16A.16.16,0,0,1-306.323-87.98Zm.035.336h.267v1.1h-.267Z" transform="translate(306.323 88.133)" fill="#fff"/>
            </g>
            <g id="Group_14909" data-name="Group 14909" transform="translate(6.193 0.477)">
              <path id="Path_23901" data-name="Path 23901" d="M-304.835-87.38v.63h-.266v-.6c0-.2-.1-.29-.271-.29a.3.3,0,0,0-.316.331v.556h-.266v-1.1h.253v.142a.5.5,0,0,1,.39-.155A.437.437,0,0,1-304.835-87.38Z" transform="translate(305.953 87.862)" fill="#fff"/>
            </g>
          </g>
        </g>
        <g id="Group_14912" data-name="Group 14912" transform="translate(8.066 84.615)">
          <rect id="Rectangle_1712" data-name="Rectangle 1712" width="45.864" height="22.011" fill="#fff" stroke="#9c83a4" stroke-miterlimit="10" stroke-width="0.25"/>
          <rect id="Rectangle_1713" data-name="Rectangle 1713" width="45.864" height="4.17" fill="#fbaf27"/>
          <rect id="Rectangle_1714" data-name="Rectangle 1714" width="24.176" height="1.911" transform="translate(16.974 6.487)" fill="#e5d6e9"/>
          <rect id="Rectangle_1715" data-name="Rectangle 1715" width="24.176" height="1.911" transform="translate(16.974 10.05)" fill="#e5d6e9"/>
          <rect id="Rectangle_1716" data-name="Rectangle 1716" width="24.176" height="1.911" transform="translate(16.974 14.249)" fill="#e5d6e9"/>
          <rect id="Rectangle_1717" data-name="Rectangle 1717" width="24.176" height="1.911" transform="translate(16.974 17.667)" fill="#e5d6e9"/>
          <rect id="Rectangle_1718" data-name="Rectangle 1718" width="10.935" height="13.091" transform="translate(4.162 6.487)" fill="#e5d6e9" stroke="#9c83a4" stroke-miterlimit="10" stroke-width="0.5"/>
          <ellipse id="Ellipse_200" data-name="Ellipse 200" cx="0.658" cy="0.603" rx="0.658" ry="0.603" transform="translate(2.673 1.698)" fill="#fff"/>
          <ellipse id="Ellipse_201" data-name="Ellipse 201" cx="0.658" cy="0.603" rx="0.658" ry="0.603" transform="translate(4.885 1.698)" fill="#fff"/>
          <ellipse id="Ellipse_202" data-name="Ellipse 202" cx="0.658" cy="0.603" rx="0.658" ry="0.603" transform="translate(7.238 1.698)" fill="#fff"/>
        </g>
        <g id="Group_14913" data-name="Group 14913" transform="translate(8.066 25.727)">
          <rect id="Rectangle_1719" data-name="Rectangle 1719" width="45.864" height="22.011" fill="#fff" stroke="#9c83a4" stroke-miterlimit="10" stroke-width="0.25"/>
          <rect id="Rectangle_1720" data-name="Rectangle 1720" width="45.864" height="4.17" fill="#fbaf27"/>
          <rect id="Rectangle_1721" data-name="Rectangle 1721" width="24.176" height="1.911" transform="translate(16.974 6.487)" fill="#e5d6e9"/>
          <rect id="Rectangle_1722" data-name="Rectangle 1722" width="24.176" height="1.911" transform="translate(16.974 10.05)" fill="#e5d6e9"/>
          <rect id="Rectangle_1723" data-name="Rectangle 1723" width="24.176" height="1.911" transform="translate(16.974 14.249)" fill="#e5d6e9"/>
          <rect id="Rectangle_1724" data-name="Rectangle 1724" width="24.176" height="1.911" transform="translate(16.974 17.667)" fill="#e5d6e9"/>
          <rect id="Rectangle_1725" data-name="Rectangle 1725" width="10.935" height="13.091" transform="translate(4.162 6.487)" fill="#e5d6e9" stroke="#9c83a4" stroke-miterlimit="10" stroke-width="0.5"/>
          <ellipse id="Ellipse_203" data-name="Ellipse 203" cx="0.658" cy="0.603" rx="0.658" ry="0.603" transform="translate(2.673 1.698)" fill="#fff"/>
          <ellipse id="Ellipse_204" data-name="Ellipse 204" cx="0.658" cy="0.603" rx="0.658" ry="0.603" transform="translate(4.885 1.698)" fill="#fff"/>
          <ellipse id="Ellipse_205" data-name="Ellipse 205" cx="0.658" cy="0.603" rx="0.658" ry="0.603" transform="translate(7.238 1.698)" fill="#fff"/>
        </g>
        <g id="Group_14914" data-name="Group 14914" transform="translate(8.066 55.588)">
          <rect id="Rectangle_1726" data-name="Rectangle 1726" width="45.864" height="22.011" fill="#fff" stroke="#9c83a4" stroke-miterlimit="10" stroke-width="0.25"/>
          <rect id="Rectangle_1727" data-name="Rectangle 1727" width="45.864" height="4.17" fill="#0c99d5"/>
          <rect id="Rectangle_1728" data-name="Rectangle 1728" width="24.176" height="1.911" transform="translate(16.974 6.487)" fill="#e5d6e9"/>
          <rect id="Rectangle_1729" data-name="Rectangle 1729" width="24.176" height="1.911" transform="translate(16.974 10.05)" fill="#e5d6e9"/>
          <rect id="Rectangle_1730" data-name="Rectangle 1730" width="24.176" height="1.911" transform="translate(16.974 14.249)" fill="#e5d6e9"/>
          <rect id="Rectangle_1731" data-name="Rectangle 1731" width="24.176" height="1.911" transform="translate(16.974 17.667)" fill="#e5d6e9"/>
          <rect id="Rectangle_1732" data-name="Rectangle 1732" width="10.935" height="13.091" transform="translate(4.162 6.487)" fill="#e5d6e9" stroke="#9c83a4" stroke-miterlimit="10" stroke-width="0.5"/>
          <ellipse id="Ellipse_206" data-name="Ellipse 206" cx="0.385" cy="0.547" rx="0.385" ry="0.547" transform="translate(2.575 1.538)" fill="#9c83a4"/>
          <ellipse id="Ellipse_207" data-name="Ellipse 207" cx="0.385" cy="0.547" rx="0.385" ry="0.547" transform="translate(3.871 1.538)" fill="#9c83a4"/>
          <ellipse id="Ellipse_208" data-name="Ellipse 208" cx="0.385" cy="0.547" rx="0.385" ry="0.547" transform="translate(5.248 1.538)" fill="#9c83a4"/>
        </g>
      </g>
      <g id="Group_14917" data-name="Group 14917" transform="translate(443.482 84.72)">
        <ellipse id="Ellipse_209" data-name="Ellipse 209" cx="19.925" cy="19.926" rx="19.925" ry="19.926" fill="url(#linear-gradient-23)"/>
        <ellipse id="Ellipse_210" data-name="Ellipse 210" cx="13.556" cy="13.556" rx="13.556" ry="13.556" transform="translate(6.37 6.37)" fill="url(#linear-gradient-24)"/>
        <g id="Group_14916" data-name="Group 14916" transform="translate(16.438 13.393)">
          <path id="Path_23902" data-name="Path 23902" d="M-465.918-103.848v-1.484a6.292,6.292,0,0,1-2.659-.674l.47-1.829a5.536,5.536,0,0,0,2.6.688c.892,0,1.5-.345,1.5-.969,0-.6-.5-.971-1.659-1.363-1.674-.563-2.816-1.344-2.816-2.862a2.891,2.891,0,0,1,2.644-2.784v-1.486h1.534v1.377a5.585,5.585,0,0,1,2.267.515l-.452,1.768a5.185,5.185,0,0,0-2.255-.533c-1.017,0-1.344.44-1.344.878,0,.515.547.844,1.877,1.344,1.861.658,2.614,1.518,2.614,2.927a3,3,0,0,1-2.786,2.9v1.593Z" transform="translate(468.577 116.612)" fill="url(#linear-gradient-25)"/>
        </g>
      </g>
      <g id="Group_14918" data-name="Group 14918" transform="translate(344.334 82.929)">
        <path id="Path_23903" data-name="Path 23903" d="M-440.955-27.386h-82.4V-82.563l1.071-1.071h79.724l1.609,1.609Z" transform="translate(523.359 83.634)" fill="#bde1ff"/>
        <rect id="Rectangle_1733" data-name="Rectangle 1733" width="82.405" height="5.389" fill="#202070"/>
        <rect id="Rectangle_1734" data-name="Rectangle 1734" width="20.415" height="31.824" transform="translate(7.583 10.812)" fill="#fff"/>
        <rect id="Rectangle_1735" data-name="Rectangle 1735" width="43.398" height="1.789" transform="translate(33.713 10.812)" fill="#f57408"/>
        <rect id="Rectangle_1736" data-name="Rectangle 1736" width="43.398" height="2.069" transform="translate(33.713 14.597)" fill="#f57408"/>
        <rect id="Rectangle_1737" data-name="Rectangle 1737" width="54.784" height="2.949" transform="translate(3.083 1.509)" fill="#fff"/>
        <path id="Path_23904" data-name="Path 23904" d="M-470.428-80.641a.453.453,0,0,1-.454.454.453.453,0,0,1-.453-.454.453.453,0,0,1,.453-.453A.453.453,0,0,1-470.428-80.641Z" transform="translate(544.049 84.644)" fill="#fff"/>
        <path id="Path_23905" data-name="Path 23905" d="M-469.642-80.641a.453.453,0,0,1-.453.454.454.454,0,0,1-.454-.454.454.454,0,0,1,.454-.453A.453.453,0,0,1-469.642-80.641Z" transform="translate(544.362 84.644)" fill="#fff"/>
        <path id="Path_23906" data-name="Path 23906" d="M-468.855-80.641a.453.453,0,0,1-.453.454.453.453,0,0,1-.454-.454.453.453,0,0,1,.454-.453A.453.453,0,0,1-468.855-80.641Z" transform="translate(544.675 84.644)" fill="#fff"/>
        <path id="Path_23907" data-name="Path 23907" d="M-482.013-80.212l-.435-.752a.794.794,0,0,0,.291-.619.759.759,0,0,0-.739-.779.759.759,0,0,0-.739.779.761.761,0,0,0,.739.78.7.7,0,0,0,.285-.06l.309.805.011.025a.16.16,0,0,0,.225.057A.176.176,0,0,0-482.013-80.212Zm-1.445-1.371a.578.578,0,0,1,.562-.591.578.578,0,0,1,.561.591.578.578,0,0,1-.561.593A.578.578,0,0,1-483.458-81.583Z" transform="translate(539.157 84.14)" fill="#121841"/>
        <rect id="Rectangle_1738" data-name="Rectangle 1738" width="4.63" height="2.794" transform="translate(60.117 1.509)" fill="#f57408"/>
        <rect id="Rectangle_1739" data-name="Rectangle 1739" width="38.129" height="34.143" transform="translate(37.238 19.667)" fill="#e4edff"/>
        <rect id="Rectangle_1740" data-name="Rectangle 1740" width="15.1" height="14.433" transform="translate(41.202 25.099)" fill="#fff"/>
        <rect id="Rectangle_1741" data-name="Rectangle 1741" width="15.1" height="11.994" transform="translate(59.621 41.816)" fill="#fff"/>
        <rect id="Rectangle_1742" data-name="Rectangle 1742" width="18.453" height="1.552" transform="translate(47.484 21.374)" fill="#f57408"/>
        <rect id="Rectangle_1743" data-name="Rectangle 1743" width="15.767" height="0.776" transform="translate(58.953 25.099)" fill="#698bfd"/>
        <rect id="Rectangle_1744" data-name="Rectangle 1744" width="15.767" height="0.776" transform="translate(58.953 26.444)" fill="#698bfd"/>
        <rect id="Rectangle_1745" data-name="Rectangle 1745" width="6.954" height="0.776" transform="translate(58.953 27.789)" fill="#698bfd"/>
        <rect id="Rectangle_1746" data-name="Rectangle 1746" width="15.767" height="0.776" transform="translate(58.953 29.134)" fill="#698bfd"/>
        <rect id="Rectangle_1747" data-name="Rectangle 1747" width="15.767" height="0.776" transform="translate(58.953 30.479)" fill="#698bfd"/>
        <rect id="Rectangle_1748" data-name="Rectangle 1748" width="15.767" height="0.776" transform="translate(58.953 31.824)" fill="#698bfd"/>
        <rect id="Rectangle_1749" data-name="Rectangle 1749" width="3.662" height="0.776" transform="translate(58.953 33.169)" fill="#698bfd"/>
        <rect id="Rectangle_1750" data-name="Rectangle 1750" width="15.767" height="0.776" transform="translate(58.953 34.514)" fill="#698bfd"/>
        <rect id="Rectangle_1751" data-name="Rectangle 1751" width="15.767" height="0.776" transform="translate(58.953 35.859)" fill="#698bfd"/>
        <rect id="Rectangle_1752" data-name="Rectangle 1752" width="15.767" height="0.776" transform="translate(58.953 37.204)" fill="#698bfd"/>
        <rect id="Rectangle_1753" data-name="Rectangle 1753" width="11.961" height="0.776" transform="translate(58.953 38.549)" fill="#698bfd"/>
      </g>
      <g id="Group_14922" data-name="Group 14922" transform="translate(65.346 66.473)">
        <rect id="Rectangle_1763" data-name="Rectangle 1763" width="34.27" height="34.27" rx="4.287" fill="url(#linear-gradient-26)"/>
        <path id="Path_23914" data-name="Path 23914" d="M-293.056-135.646l4.8,4.8,8.98-8.98" transform="translate(303.302 152.473)" fill="none" stroke="#fff" stroke-linecap="round" stroke-linejoin="round" stroke-width="1.57"/>
      </g>
      <circle id="Ellipse_211" data-name="Ellipse 211" cx="16.5" cy="16.5" r="16.5" transform="translate(127 47)" fill="#3cc"/>
      <g id="Group_14924" data-name="Group 14924" transform="translate(132.188 55.394)">
        <path id="Path_23915" data-name="Path 23915" d="M-730.109,2296.566c0-.027.018-.051.017-.077l-6.858,6.607,6.849,6.4c0-.047-.008-.093-.008-.139Zm0,0" transform="translate(752.564 -2294.954)" fill="#fff"/>
        <path id="Path_23916" data-name="Path 23916" d="M-842.59,2358.967l-2.8,2.692a.731.731,0,0,1-.508.2.728.728,0,0,1-.5-.2l-2.792-2.6-6.894,6.645a1.574,1.574,0,0,0,.536.107h19.3a1.587,1.587,0,0,0,.771-.212Zm0,0" transform="translate(857.157 -2349.807)" fill="#fff"/>
        <path id="Path_23917" data-name="Path 23917" d="M-849.336,2294.228l10.466-10.081a1.576,1.576,0,0,0-.808-.237h-19.3a1.6,1.6,0,0,0-1.013.378Zm0,0" transform="translate(860.587 -2283.911)" fill="#fff"/>
        <path id="Path_23918" data-name="Path 23918" d="M-864.891,2299.122v12.545a1.594,1.594,0,0,0,.069.415l6.808-6.555Zm0,0" transform="translate(864.891 -2297.266)" fill="#fff"/>
      </g>
      <g id="Mask_Group_25" data-name="Mask Group 25" clip-path="url(#clip-path-2)">
        <g id="Group_14870" data-name="Group 14870" transform="translate(395.232 200.113)">
          <path id="Path_23878" data-name="Path 23878" d="M-247.733,93.253a291.045,291.045,0,0,1-41.406,41.012l8.068-119.249h28.044Z" transform="translate(308.539 90.358)" fill="#8fc9ef"/>
          <path id="Path_23879" data-name="Path 23879" d="M-283.688,50.669c-3.4-36.265,7.9-74.217,21.626-91.8,8.361,25.362-20.553,43.073-12.906,97.989" transform="translate(312.211 47.754)" fill="url(#linear-gradient-27)"/>
          <path id="Path_23880" data-name="Path 23880" d="M-275.243,47.688c4.835-36.1-4.958-74.472-17.982-92.584-9.357,25.012,18.835,43.852,9.024,98.423" transform="translate(303.972 44.896)" fill="url(#linear-gradient-28)"/>
          <path id="Path_23881" data-name="Path 23881" d="M-282.3,48c.985-36.411,15.089-64.177,30.835-79.98,5.248,26.183-25.587,40.289-24.6,95.725" transform="translate(313.731 54.694)" fill="url(#linear-gradient-29)"/>
          <path id="Path_23882" data-name="Path 23882" d="M-268.734,55.936c-.983-36.411-15.089-64.175-30.834-79.98-5.248,26.183,25.585,40.289,24.6,95.725" transform="translate(300.169 60.719)" fill="url(#linear-gradient-30)"/>
          <path id="Path_23883" data-name="Path 23883" d="M-252.72,110.889a290.266,290.266,0,0,1-30.251,28.278q-6.946,5.622-14.3,10.822l9.573-141.433h28.044Z" transform="translate(302.371 85.456)" fill="#f0f8ff"/>
        </g>
      </g>
    </g>
  </g>
</svg>
